<svg width="32" height="32" viewBox="0 0 32 32" fill="none" xmlns="http://www.w3.org/2000/svg">
<path d="M27 5C28.1046 5 29 5.89543 29 7V25C29 26.1046 28.1046 27 27 27H5L4.7959 26.9893C3.78722 26.887 3 26.0357 3 25V7C3 5.89543 3.89543 5 5 5H27ZM5 25H27V7H5V25ZM10.0537 12.2324C10.1605 11.501 11.0324 11.1177 11.6494 11.5879L17.124 15.7607C17.1918 15.8124 17.2505 15.8707 17.3008 15.9336V13.0244C17.3008 12.4861 17.7371 12.049 18.2754 12.0488C18.8139 12.0488 19.251 12.4859 19.251 13.0244V20.3145C19.2508 20.8528 18.8137 21.2891 18.2754 21.2891C17.7372 21.2889 17.301 20.8526 17.3008 20.3145V17.1777C17.2504 17.2409 17.192 17.2998 17.124 17.3516L11.6494 21.5244C10.9912 22.0261 10.043 21.5561 10.043 20.7285V12.3838L10.0537 12.2324ZM21.5254 12.0488C22.0639 12.0488 22.501 12.4859 22.501 13.0244V20.3145C22.5008 20.8528 22.0637 21.2891 21.5254 21.2891C20.9872 21.2889 20.551 20.8526 20.5508 20.3145V13.0244C20.5508 12.4861 20.9871 12.049 21.5254 12.0488ZM12.043 18.709L14.8691 16.5557L12.043 14.4033V18.709Z" fill="currentColor"/>
</svg>
