<svg width="32" height="32" viewBox="0 0 32 32" fill="none" xmlns="http://www.w3.org/2000/svg">
<path d="M26.6768 12.0576L25.7306 12.3813L25.9229 12.9436L26.5087 13.0434L26.6768 12.0576ZM30 16H31H30ZM26.6768 20.9414L26.5087 19.9556L25.9228 20.0555L25.7305 20.6179L26.6768 20.9414ZM22.2734 24.8623L22.0621 23.8849L21.9389 23.9115L21.8261 23.9679L22.2734 24.8623ZM15.4473 28.2764L15.8945 29.1708L15.8946 29.1707L15.4473 28.2764ZM14 25H15V24H14V25ZM5.32227 20.9414L6.26851 20.6179L6.0763 20.0557L5.49056 19.9557L5.32227 20.9414ZM2 17H1H2ZM5.32227 12.0576L5.49052 13.0434L6.07618 12.9434L6.26845 12.3812L5.32227 12.0576ZM11 8V7V7V8ZM21 8V9C23.1927 9 25.0572 10.4128 25.7306 12.3813L26.6768 12.0576L27.6229 11.734C26.6816 8.98215 24.0747 7 21 7V8ZM26.6768 12.0576L26.5087 13.0434C27.9233 13.2845 29 14.5174 29 16H30H31C31 13.5257 29.2038 11.4739 26.8448 11.0718L26.6768 12.0576ZM30 16H29V17H30H31V16H30ZM30 17H29C29 18.4822 27.9236 19.7144 26.5087 19.9556L26.6768 20.9414L26.8448 21.9272C29.2034 21.5251 31 19.4745 31 17H30ZM26.6768 20.9414L25.7305 20.6179C25.1696 22.2585 23.7793 23.5136 22.0621 23.8849L22.2734 24.8623L22.4848 25.8397C24.8944 25.3188 26.8376 23.562 27.623 21.2649L26.6768 20.9414ZM22.2734 24.8623L21.8261 23.9679L14.9999 27.382L15.4473 28.2764L15.8946 29.1707L22.7208 25.7567L22.2734 24.8623ZM15.4473 28.2764L15.0001 27.3819L15 27.3818H14H13C13 28.8685 14.5646 29.8357 15.8945 29.1708L15.4473 28.2764ZM14 27.3818H15V25H14H13V27.3818H14ZM14 25V24H11V25V26H14V25ZM11 25V24C8.80675 24 6.94153 22.5868 6.26851 20.6179L5.32227 20.9414L4.37603 21.2649C5.31702 24.0176 7.92497 26 11 26V25ZM5.32227 20.9414L5.49056 19.9557C4.0761 19.7142 3 18.482 3 17H2H1C1 19.4741 2.79594 21.5246 5.15398 21.9271L5.32227 20.9414ZM2 17H3V16H2H1V17H2ZM2 16H3C3 14.5176 4.07635 13.2847 5.49052 13.0434L5.32227 12.0576L5.15402 11.0719C2.79553 11.4744 1 13.5262 1 16H2ZM5.32227 12.0576L6.26845 12.3812C6.94167 10.4129 8.80693 9 11 9V8V7C7.92544 7 5.31739 8.98177 4.37608 11.734L5.32227 12.0576ZM11 8V9H21V8V7H11V8Z" fill="currentColor"/>
<rect x="10.5" y="14" width="2.5" height="4" rx="1.25" fill="currentColor"/>
<rect x="19" y="14" width="2.5" height="4" rx="1.25" fill="currentColor"/>
<rect x="12" y="3" width="8" height="2" rx="1" fill="currentColor"/>
</svg>
