<svg width="20" height="20" viewBox="0 0 20 20" xmlns="http://www.w3.org/2000/svg">
  <path fill="currentColor" fill-rule="evenodd" clip-rule="evenodd"
    d="
      M17 10
      A7 7 0 1 1 3 10
      A7 7 0 1 1 17 10
      Z

      M15.5 10
      A5.5 5.5 0 1 0 4.5 10
      A5.5 5.5 0 1 0 15.5 10
      Z

      M13.25 9.56699
      C13.5833 9.75944 13.5833 10.2406 13.25 10.433
      L8.75 13.0311
      C8.41667 13.2235 8 12.983 8 12.5981
      L8 7.40192
      C8 7.01702 8.41667 6.77646 8.75 6.96891
      L13.25 9.56699
      Z
    "
  />
</svg>
