<svg width="32" height="32" viewBox="0 0 32 32" fill="none" xmlns="http://www.w3.org/2000/svg">
<path d="M23.3086 13.8984C23.8608 13.8984 24.3085 14.3462 24.3086 14.8984C24.3086 17.2055 23.3921 19.4184 21.7607 21.0498C20.367 22.4434 18.5489 23.3127 16.6104 23.5371V25.9971H20.0098C20.5619 25.9973 21.0098 26.4449 21.0098 26.9971C21.0097 27.5492 20.5618 27.9969 20.0098 27.9971H11.2109C10.6587 27.9971 10.211 27.5493 10.2109 26.9971C10.2109 26.4448 10.6587 25.9971 11.2109 25.9971H14.6104V23.5371C12.6714 23.3128 10.8529 22.4437 9.45898 21.0498C7.82762 19.4184 6.91113 17.2055 6.91113 14.8984C6.91122 14.3462 7.3589 13.8984 7.91113 13.8984C8.46336 13.8984 8.91104 14.3462 8.91113 14.8984C8.91113 16.6751 9.61676 18.3795 10.873 19.6357C12.1293 20.892 13.8337 21.5977 15.6104 21.5977C17.3868 21.5976 19.0905 20.8918 20.3467 19.6357C21.603 18.3795 22.3086 16.6751 22.3086 14.8984C22.3087 14.3464 22.7565 13.8986 23.3086 13.8984ZM15.6104 4C16.7505 4.00008 17.8441 4.45352 18.6504 5.25977C19.4565 6.06606 19.9092 7.15963 19.9092 8.2998V14.8984C19.9092 16.0386 19.4566 17.1322 18.6504 17.9385C17.8441 18.7447 16.7505 19.1982 15.6104 19.1982C14.47 19.1982 13.3757 18.7448 12.5693 17.9385C11.7633 17.1322 11.3105 16.0385 11.3105 14.8984V8.2998C11.3105 7.15972 11.7633 6.06604 12.5693 5.25977C13.3757 4.45345 14.47 4 15.6104 4ZM15.6104 6C15.0005 6 14.4156 6.24259 13.9844 6.67383C13.5531 7.10507 13.3105 7.68993 13.3105 8.2998V14.8984C13.3105 15.5083 13.5531 16.0932 13.9844 16.5244C14.4156 16.9556 15.0005 17.1982 15.6104 17.1982C16.2201 17.1982 16.8052 16.9556 17.2363 16.5244C17.6674 16.0932 17.9092 15.5082 17.9092 14.8984V8.2998C17.9092 7.69007 17.6674 7.10505 17.2363 6.67383C16.8052 6.24265 16.2201 6.00008 15.6104 6ZM4.91602 6.22559C5.42221 6.22559 5.83301 6.63639 5.83301 7.14258V11.4189C5.83301 11.9251 5.42221 12.3359 4.91602 12.3359C4.41003 12.3357 4 11.925 4 11.4189V7.14258C4 6.63654 4.41003 6.22583 4.91602 6.22559ZM26.3008 6.22559C26.8068 6.22583 27.2168 6.63654 27.2168 7.14258V11.4189C27.2168 11.925 26.8068 12.3357 26.3008 12.3359C25.7946 12.3359 25.3838 11.9251 25.3838 11.4189V7.14258C25.3838 6.63639 25.7946 6.22559 26.3008 6.22559ZM7.9707 7.44336C8.47676 7.44336 8.88749 7.85336 8.8877 8.35938V10.1924C8.8877 10.6986 8.47689 11.1094 7.9707 11.1094C7.46472 11.1091 7.05469 10.6984 7.05469 10.1924V8.35938C7.0549 7.85352 7.46485 7.44361 7.9707 7.44336ZM23.2461 7.44336C23.7519 7.44361 24.1619 7.85352 24.1621 8.35938V10.1924C24.1621 10.6984 23.7521 11.1091 23.2461 11.1094C22.7399 11.1094 22.3291 10.6986 22.3291 10.1924V8.35938C22.3293 7.85336 22.74 7.44336 23.2461 7.44336Z" fill="currentColor"/>
</svg>
