<svg width="20" height="20" viewBox="0 0 20 20" fill="none" xmlns="http://www.w3.org/2000/svg">
<path d="M15 6.30762C16.1046 6.30762 17 7.20305 17 8.30762V9.2998H18V13.2998H17V14.3076C17 15.3433 16.2128 16.1946 15.2041 16.2969L15 16.3076H5L4.7959 16.2969C3.85435 16.2014 3.1062 15.4533 3.01074 14.5117L3 14.3076V13.2998H2V9.2998H3V8.30762C3 7.20305 3.89543 6.30762 5 6.30762H15ZM5 7.60742C4.6134 7.60742 4.2998 7.92102 4.2998 8.30762V14.3076C4.2998 14.6942 4.6134 15.0078 5 15.0078H15C15.3866 15.0078 15.7002 14.6942 15.7002 14.3076V8.30762C15.7002 7.92102 15.3866 7.60742 15 7.60742H5ZM8.5 12.3076H7V10.3076H8.5V12.3076ZM13 12.3076H11.5V10.3076H13V12.3076ZM13 5.2998H7V4H13V5.2998Z" fill="white"/>
</svg>
