<svg width="20" height="20" viewBox="0 0 20 20" fill="none" xmlns="http://www.w3.org/2000/svg">
<path d="M14.4993 9.5L15.9993 9.5M14.4993 9.5C14.4993 9.10217 14.3412 8.72064 14.0599 8.43934C13.7786 8.15803 13.3971 8 12.9993 8C12.6014 8 12.2199 8.15803 11.9386 8.43934C11.6573 8.72064 11.4993 9.10217 11.4993 9.5M14.4993 9.5C14.4993 9.89782 14.3412 10.2794 14.0599 10.5607C13.7786 10.842 13.3971 11 12.9993 11C12.6014 11 12.2199 10.842 11.9386 10.5607C11.6573 10.2794 11.4993 9.89782 11.4993 9.5M11.4993 9.5L3.99926 9.5M5.5 4.5C5.5 4.89782 5.65804 5.27936 5.93934 5.56066C6.22065 5.84196 6.60218 6 7 6C7.39782 6 7.77936 5.84196 8.06066 5.56066C8.34196 5.27936 8.5 4.89782 8.5 4.5M5.5 4.5C5.5 4.10217 5.65804 3.72064 5.93934 3.43934C6.22065 3.15803 6.60218 3 7 3C7.39782 3 7.77936 3.15803 8.06066 3.43934C8.34196 3.72064 8.5 4.10217 8.5 4.5M5.5 4.5L4 4.5M8.5 4.5L16 4.5M5.49926 14.5C5.49926 14.8978 5.6573 15.2794 5.9386 15.5607C6.2199 15.842 6.60143 16 6.99926 16C7.39708 16 7.77861 15.842 8.05992 15.5607C8.34122 15.2794 8.49926 14.8978 8.49926 14.5M5.49926 14.5C5.49926 14.1022 5.6573 13.7206 5.9386 13.4393C6.2199 13.158 6.60143 13 6.99926 13C7.39708 13 7.77861 13.158 8.05992 13.4393C8.34122 13.7206 8.49926 14.1022 8.49926 14.5M5.49926 14.5L3.99926 14.5M8.49926 14.5L15.9993 14.5" stroke="currentColor" stroke-width="1.5" stroke-linecap="square" stroke-linejoin="round"/>
</svg>
