<svg width="200" height="200" viewBox="0 0 200 200" fill="none" xmlns="http://www.w3.org/2000/svg">
<path d="M86 12C124.66 12 156 43.3401 156 82C156 98.9582 149.969 114.507 139.936 126.621L147.605 134.29C148.541 134.121 149.541 134.397 150.264 135.12L188.447 173.304L188.554 173.415C189.583 174.555 189.583 176.295 188.554 177.435L188.447 177.546L178.548 187.445L178.436 187.552C177.296 188.582 175.557 188.582 174.417 187.552L174.305 187.445L136.121 149.262C135.02 148.16 134.954 146.415 135.924 145.236L128.394 137.706C116.628 146.674 101.936 152 86 152C47.3401 152 16 120.66 16 82C16 43.3401 47.3401 12 86 12ZM139.657 147.141L176.427 183.91L184.912 175.425L148.143 138.655L139.657 147.141ZM86 16C49.5492 16 20 45.5492 20 82C20 118.451 49.5492 148 86 148C122.451 148 152 118.451 152 82C152 45.5492 122.451 16 86 16ZM136.614 130.354C135.881 131.12 135.131 131.87 134.364 132.604L131.657 135.312L138.728 142.384L144.385 136.727L137.313 129.655L136.614 130.354ZM85.9492 110.188C88.293 110.188 90.1484 112.043 90.1484 114.289C90.1484 116.633 88.293 118.488 85.9492 118.488C83.7031 118.488 81.7988 116.633 81.8477 114.289C81.7988 112.043 83.7031 110.188 85.9492 110.188ZM87.8047 46.3203C98.8398 46.3203 106.701 53.8398 106.75 64.1914C106.701 70.832 103.625 75.4219 96.6914 80.1094C90.3438 84.4062 88.3906 87.6777 88.293 94.5625V97.4922H83.3125V94.5625C83.4102 85.2363 86.4375 81.4277 93.3711 76.7891C99.1328 72.9316 101.721 69.2207 101.77 63.9961C101.721 56.1836 95.6172 50.7637 87.8047 50.8125C80.041 50.7637 73.7422 56.1836 73.4492 64.9727H68.3711C68.5664 53.8398 76.916 46.3203 87.8047 46.3203Z" fill="#E9EBEC"/>
</svg>
