<svg width="20" height="20" viewBox="0 0 20 20" fill="none" xmlns="http://www.w3.org/2000/svg">
<path d="M14.9 17H5.1C4.91435 17 4.7363 16.9263 4.60503 16.795C4.47375 16.6637 4.4 16.4857 4.4 16.3V7.2H3V5.8H6.5V3.7C6.5 3.60807 6.51811 3.51705 6.55328 3.43212C6.58846 3.34719 6.64002 3.27003 6.70503 3.20503C6.77003 3.14002 6.84719 3.08846 6.93212 3.05328C7.01705 3.01811 7.10807 3 7.2 3H12.8C12.9857 3 13.1637 3.07375 13.295 3.20503C13.4263 3.3363 13.5 3.51435 13.5 3.7V5.8H17V7.2H15.6V16.3C15.6 16.4857 15.5262 16.6637 15.395 16.795C15.2637 16.9263 15.0857 17 14.9 17ZM5.8 7.2V15.6H14.2V7.2H5.8ZM7.9 4.4V5.8H12.1V4.4H7.9ZM12.1 13.5H10.7V9.3H12.1V13.5ZM9.3 13.5H7.9V9.3H9.3V13.5Z" fill="currentColor"/>
</svg>
