<svg width="32" height="32" viewBox="0 0 32 32" fill="none" xmlns="http://www.w3.org/2000/svg">
<path fill-rule="evenodd" clip-rule="evenodd" d="M9.00078 4.79688C9.37208 4.79688 9.72818 4.94437 9.99073 5.20693C10.2533 5.46948 10.4008 5.82557 10.4008 6.19687V7.59687H11.8008C12.1721 7.59687 12.5282 7.74437 12.7907 8.00693C13.0533 8.26948 13.2008 8.62557 13.2008 8.99687C13.2008 9.36818 13.0533 9.72427 12.7907 9.98682C12.5282 10.2494 12.1721 10.3969 11.8008 10.3969H10.4008V11.7969C10.4008 12.1682 10.2533 12.5243 9.99073 12.7868C9.72818 13.0494 9.37208 13.1969 9.00078 13.1969C8.62948 13.1969 8.27338 13.0494 8.01083 12.7868C7.74828 12.5243 7.60078 12.1682 7.60078 11.7969V10.3969H6.20078C5.82948 10.3969 5.47338 10.2494 5.21083 9.98682C4.94828 9.72427 4.80078 9.36818 4.80078 8.99687C4.80078 8.62557 4.94828 8.26948 5.21083 8.00693C5.47338 7.74437 5.82948 7.59687 6.20078 7.59687H7.60078V6.19687C7.60078 5.82557 7.74828 5.46948 8.01083 5.20693C8.27338 4.94437 8.62948 4.79688 9.00078 4.79688ZM9.00078 18.7969C9.37208 18.7969 9.72818 18.9444 9.99073 19.2069C10.2533 19.4695 10.4008 19.8256 10.4008 20.1969V21.5969H11.8008C12.1721 21.5969 12.5282 21.7444 12.7907 22.0069C13.0533 22.2695 13.2008 22.6256 13.2008 22.9969C13.2008 23.3682 13.0533 23.7243 12.7907 23.9868C12.5282 24.2494 12.1721 24.3969 11.8008 24.3969H10.4008V25.7969C10.4008 26.1682 10.2533 26.5243 9.99073 26.7868C9.72818 27.0494 9.37208 27.1969 9.00078 27.1969C8.62948 27.1969 8.27338 27.0494 8.01083 26.7868C7.74828 26.5243 7.60078 26.1682 7.60078 25.7969V24.3969H6.20078C5.82948 24.3969 5.47338 24.2494 5.21083 23.9868C4.94828 23.7243 4.80078 23.3682 4.80078 22.9969C4.80078 22.6256 4.94828 22.2695 5.21083 22.0069C5.47338 21.7444 5.82948 21.5969 6.20078 21.5969H7.60078V20.1969C7.60078 19.8256 7.74828 19.4695 8.01083 19.2069C8.27338 18.9444 8.62948 18.7969 9.00078 18.7969ZM18.8008 4.79688C19.1097 4.79678 19.4101 4.89888 19.6549 5.08729C19.8998 5.27569 20.0755 5.53981 20.1546 5.83847L21.8052 12.0769L26.5008 14.7845C26.7136 14.9074 26.8903 15.0841 27.0132 15.2969C27.136 15.5097 27.2007 15.7511 27.2007 15.9969C27.2007 16.2426 27.136 16.484 27.0132 16.6968C26.8903 16.9097 26.7136 17.0864 26.5008 17.2093L21.8052 19.9183L20.1532 26.1553C20.0739 26.4537 19.8983 26.7175 19.6536 26.9057C19.4089 27.0939 19.1088 27.1959 18.8001 27.1959C18.4914 27.1959 18.1913 27.0939 17.9466 26.9057C17.7019 26.7175 17.5262 26.4537 17.447 26.1553L15.7964 19.9169L11.1008 17.2093C10.888 17.0864 10.7113 16.9097 10.5884 16.6968C10.4655 16.484 10.4008 16.2426 10.4008 15.9969C10.4008 15.7511 10.4655 15.5097 10.5884 15.2969C10.7113 15.0841 10.888 14.9074 11.1008 14.7845L15.7964 12.0755L17.4484 5.83847C17.5274 5.54004 17.7029 5.27609 17.9475 5.08771C18.1921 4.89933 18.4921 4.79708 18.8008 4.79688Z" fill="currentColor"/>
</svg>
