<svg width="20" height="20" viewBox="0 0 20 20" fill="none" xmlns="http://www.w3.org/2000/svg">
<mask id="path-1-inside-1_11084_81553" fill="white">
<path d="M6.63086 3.36719C7.23868 1.54402 9.81779 1.54417 10.4258 3.36719L10.7915 4.465C11.1774 5.62347 12.0713 6.54223 13.2187 6.95975L13.7373 7.14844C15.4926 7.78679 15.4926 10.2699 13.7373 10.9082L13.1978 11.1042C12.0494 11.5214 11.1547 12.4405 10.7686 13.5997L10.4258 14.6289C9.81786 16.4521 7.23861 16.4523 6.63086 14.6289L6.28815 13.6004C5.90194 12.4414 5.00726 11.5224 3.85901 11.1053L3.31641 10.9082C1.56114 10.2699 1.56114 7.78679 3.31641 7.14844L3.83804 6.95865C4.98542 6.54121 5.87931 5.62258 6.2653 4.46424L6.63086 3.36719Z"/>
</mask>
<path d="M6.63086 3.36719L5.20786 2.89278L5.20779 2.89299L6.63086 3.36719ZM10.4258 3.36719L11.8489 2.89313L11.8487 2.89262L10.4258 3.36719ZM13.7373 7.14844L13.2244 8.55802L13.2246 8.55811L13.7373 7.14844ZM13.7373 10.9082L14.2495 12.318L14.25 12.3179L13.7373 10.9082ZM10.4258 14.6289L11.8488 15.1034L11.8489 15.103L10.4258 14.6289ZM6.63086 14.6289L5.20779 15.1031L5.20782 15.1032L6.63086 14.6289ZM3.31641 10.9082L2.80374 12.3179L2.80426 12.3181L3.31641 10.9082ZM3.31641 7.14844L3.82907 8.55811L3.82926 8.55804L3.31641 7.14844ZM6.2653 4.46424L4.84222 3.99004L6.2653 4.46424ZM10.7686 13.5997L12.1918 14.0737L10.7686 13.5997ZM6.63086 3.36719L8.05386 3.8416C8.20566 3.38628 8.8507 3.38559 9.00283 3.84175L10.4258 3.36719L11.8487 2.89262C10.7849 -0.297243 6.2717 -0.29824 5.20786 2.89278L6.63086 3.36719ZM10.4258 3.36719L9.00266 3.84124L9.36836 4.93906L10.7915 4.465L12.2146 3.99094L11.8489 2.89313L10.4258 3.36719ZM13.2187 6.95975L12.7058 8.36933L13.2244 8.55802L13.7373 7.14844L14.2502 5.73885L13.7316 5.55016L13.2187 6.95975ZM13.7373 7.14844L13.2246 8.55811C13.6635 8.7177 13.6635 9.33894 13.2246 9.49853L13.7373 10.9082L14.25 12.3179C17.3217 11.2008 17.3217 6.85587 14.25 5.73877L13.7373 7.14844ZM13.7373 10.9082L13.2251 9.49836L12.6856 9.69437L13.1978 11.1042L13.71 12.5141L14.2495 12.318L13.7373 10.9082ZM10.7686 13.5997L9.34551 13.1256L9.00266 14.1549L10.4258 14.6289L11.8489 15.103L12.1918 14.0737L10.7686 13.5997ZM10.4258 14.6289L9.0028 14.1544C8.85068 14.6107 8.20568 14.61 8.05389 14.1546L6.63086 14.6289L5.20782 15.1032C6.27153 18.2946 10.7851 18.2936 11.8488 15.1034L10.4258 14.6289ZM6.63086 14.6289L8.05393 14.1547L7.71122 13.1262L6.28815 13.6004L4.86507 14.0746L5.20779 15.1031L6.63086 14.6289ZM3.85901 11.1053L4.37115 9.69545L3.82855 9.49834L3.31641 10.9082L2.80426 12.3181L3.34686 12.5152L3.85901 11.1053ZM3.31641 10.9082L3.82907 9.49853C3.39026 9.33894 3.39026 8.7177 3.82907 8.55811L3.31641 7.14844L2.80374 5.73877C-0.267968 6.85587 -0.267968 11.2008 2.80374 12.3179L3.31641 10.9082ZM3.31641 7.14844L3.82926 8.55804L4.35089 8.36826L3.83804 6.95865L3.32519 5.54905L2.80356 5.73883L3.31641 7.14844ZM6.2653 4.46424L7.68837 4.93844L8.05393 3.84139L6.63086 3.36719L5.20779 2.89299L4.84222 3.99004L6.2653 4.46424ZM3.83804 6.95865L4.35089 8.36826C5.92854 7.79427 7.15764 6.53116 7.68837 4.93844L6.2653 4.46424L4.84222 3.99004C4.60098 4.714 4.0423 5.28815 3.32519 5.54905L3.83804 6.95865ZM6.28815 13.6004L7.71122 13.1262C7.18019 11.5326 5.95 10.269 4.37115 9.69545L3.85901 11.1053L3.34686 12.5152C4.06452 12.7759 4.62369 13.3502 4.86507 14.0746L6.28815 13.6004ZM13.1978 11.1042L12.6856 9.69437C11.1066 10.268 9.87642 11.5318 9.34551 13.1256L10.7686 13.5997L12.1918 14.0737C12.4331 13.3492 12.9923 12.7748 13.71 12.5141L13.1978 11.1042ZM10.7915 4.465L9.36836 4.93906C9.89897 6.53195 11.1281 7.79525 12.7058 8.36933L13.2187 6.95975L13.7316 5.55016C13.0145 5.28921 12.4558 4.71499 12.2146 3.99094L10.7915 4.465Z" fill="currentColor" mask="url(#path-1-inside-1_11084_81553)"/>
<path d="M14.9459 13.3704C15.1231 12.8765 15.8753 12.8766 16.0526 13.3704L16.4101 14.3673C16.4664 14.5242 16.5968 14.6487 16.7642 14.7052L17.6162 14.9929C18.1279 15.1659 18.1279 15.8383 17.6162 16.0113L16.7625 16.2996C16.5951 16.3561 16.4647 16.4806 16.4084 16.6375L16.0526 17.6297C15.8753 18.1234 15.1231 18.1235 14.9459 17.6297L14.589 16.6363C14.5327 16.4795 14.4023 16.3551 14.235 16.2986L13.384 16.0113C12.872 15.8384 12.872 15.1658 13.384 14.9929L14.2335 14.7057C14.4007 14.6492 14.531 14.5249 14.5873 14.3682L14.9459 13.3704Z" fill="currentColor"/>
</svg>
