<svg width="20" height="20" viewBox="0 0 20 20" fill="none" xmlns="http://www.w3.org/2000/svg">
<rect width="1.3" height="5" transform="matrix(0.707107 -0.707107 -0.707107 -0.707107 16.2422 17.1641)" fill="white"/>
<circle cx="9.5" cy="9.5" r="5.85" stroke="white" stroke-width="1.3"/>
<path d="M9.70089 5.79584C10.4516 5.76681 11.0592 5.94487 11.5238 6.33002C11.9956 6.71489 12.2451 7.25592 12.272 7.95313C12.3001 8.6791 12.0857 9.23447 11.6289 9.61926C11.3558 9.84922 11.0251 10.0159 10.6366 10.1192C10.1639 10.2448 9.76838 10.617 9.76209 11.0952L8.66913 11.1374C8.60312 10.2126 9.35663 9.48123 10.2616 9.19949C10.3702 9.16571 10.4634 9.12889 10.5359 9.08925C10.9114 8.88757 11.089 8.52438 11.0687 7.99967C11.0539 7.61872 10.9283 7.32484 10.6918 7.11803C10.4627 6.91094 10.1494 6.81508 9.75195 6.83045C9.35451 6.84582 9.04574 6.96214 8.82564 7.17941C8.60554 7.39667 8.50272 7.69219 8.51718 8.06595L7.33589 8.11164C7.31921 7.68037 7.4037 7.29199 7.58936 6.94648C7.77502 6.60097 8.04823 6.32766 8.409 6.12654C8.77714 5.92515 9.20777 5.81491 9.70089 5.79584ZM9.2912 13.4997C9.06304 13.5085 8.86876 13.4404 8.70836 13.2955C8.54796 13.1505 8.46345 12.9666 8.45484 12.7438C8.44622 12.521 8.51627 12.3311 8.665 12.1742C8.81372 12.0172 9.00216 11.9344 9.23032 11.9256C9.45112 11.917 9.64172 11.9852 9.80212 12.1302C9.96252 12.2752 10.047 12.4591 10.0556 12.6819C10.0643 12.9047 9.99421 13.0946 9.84548 13.2515C9.69676 13.4084 9.512 13.4911 9.2912 13.4997Z" fill="white"/>
</svg>
