<svg width="20" height="20" viewBox="0 0 20 20" fill="none" xmlns="http://www.w3.org/2000/svg">
<path d="M17.25 3C17.9404 3 18.5 3.55964 18.5 4.25V15.25C18.5 15.9404 17.9404 16.5 17.25 16.5H9.25C8.55964 16.5 8 15.9404 8 15.25V4.25C8 3.55964 8.55964 3 9.25 3H17.25ZM9.5 15H17V4.5H9.5V15ZM6.75 6.5H5.5V13H6.75V14.5H5.25C4.55964 14.5 4 13.9404 4 13.25V6.25C4 5.55964 4.55964 5 5.25 5H6.75V6.5ZM2.75 8.5H2.5V11H2.75V12.5H2.25C1.55964 12.5 1 11.9404 1 11.25V8.25C1 7.55964 1.55964 7 2.25 7H2.75V8.5Z" fill="currentColor"/>
</svg>
