<svg width="20" height="20" viewBox="0 0 20 20" fill="none" xmlns="http://www.w3.org/2000/svg">
<g clip-path="url(#clip0_10399_126544)">
<path d="M9.7832 2.875C9.87943 2.70833 10.1206 2.70833 10.2168 2.875L17.1445 14.875C17.2408 15.0417 17.1202 15.25 16.9277 15.25L3.07227 15.25C2.9037 15.25 2.78994 15.0901 2.8291 14.9385L2.85547 14.875L9.7832 2.875Z" stroke="currentColor" stroke-width="1.5"/>
<path d="M10 12.25C10.4142 12.25 10.75 12.5858 10.75 13C10.75 13.4142 10.4142 13.75 10 13.75C9.58579 13.75 9.25 13.4142 9.25 13C9.25 12.5858 9.58579 12.25 10 12.25ZM10.5361 11.5H9.46387L9.25 7.5H10.75L10.5361 11.5Z" fill="currentColor"/>
</g>
<defs>
<clipPath id="clip0_10399_126544">
<rect width="20" height="20" fill="white"/>
</clipPath>
</defs>
</svg>
