<svg width="20" height="20" viewBox="0 0 20 20" fill="none" xmlns="http://www.w3.org/2000/svg">
<path d="M3.77344 13.4092H16.2266V4.77344H3.77344V13.4092ZM13.9541 11.1357H12.4092V8.9541H13.9541V11.1357ZM10.7734 10.8643V11.1357H9.22656V10.8643H10.7734ZM7.59082 10.8643V11.1357H6.04492V10.8643H7.59082ZM10.7734 7.04492V9.22656H6.04492V7.04492H10.7734ZM13.9541 7.04492V7.31836H12.4092V7.04492H13.9541ZM3.5 5.27148C3.4996 5.17018 3.51906 5.06927 3.55762 4.97559C3.59622 4.88186 3.65293 4.79629 3.72461 4.72461C3.79629 4.65293 3.88186 4.59622 3.97559 4.55762C4.06927 4.51906 4.17018 4.4996 4.27148 4.5H15.7266C15.9316 4.5 16.1285 4.5816 16.2734 4.72656C16.4184 4.87153 16.5 5.06842 16.5 5.27344V12.9092C16.5 13.1141 16.4184 13.3111 16.2734 13.4561C16.1285 13.6008 15.9314 13.6816 15.7266 13.6816H10.7734V15.9551H12.0459V16.2275H7.95508V15.9551H9.22656V13.6816H4.27246C4.17103 13.6817 4.07029 13.6618 3.97656 13.623C3.88306 13.5843 3.79817 13.5276 3.72656 13.4561C3.6548 13.3843 3.59739 13.2989 3.55859 13.2051C3.51982 13.1113 3.49992 13.0106 3.5 12.9092V5.27148Z" fill="currentColor" stroke="currentColor"/>
</svg>
