<svg width="24" height="24" viewBox="0 0 24 24" fill="none" xmlns="http://www.w3.org/2000/svg">
<path d="M1.01562 4.31543C0.765153 2.72918 2.39234 1.50909 3.84473 2.19434L22.542 11.0215C22.9693 11.2234 23.1405 11.6199 23.1094 11.999C23.1407 12.3783 22.9695 12.7745 22.542 12.9766L3.84473 21.8037C2.3922 22.4892 0.764887 21.2691 1.01562 19.6826L2.23047 11.999L1.01562 4.31543ZM3.90625 12.9258L2.79395 19.9639C2.78516 20.0196 2.79316 20.0511 2.80176 20.0713C2.813 20.0974 2.83578 20.1288 2.87109 20.1553C2.90633 20.1816 2.94251 20.1938 2.9707 20.1973C2.99247 20.1999 3.02494 20.1999 3.07617 20.1758L18.4346 12.9258H3.90625ZM2.9707 3.80078C2.94253 3.80428 2.90633 3.81643 2.87109 3.84277C2.83578 3.86925 2.81306 3.90063 2.80176 3.92676C2.79314 3.94688 2.7852 3.97837 2.79395 4.03418L3.90625 11.0723H18.4346L3.07617 3.82227C3.02505 3.79822 2.99244 3.79815 2.9707 3.80078Z" fill="currentColor"/>
</svg>
