<svg width="20" height="20" viewBox="0 0 20 20" fill="none" xmlns="http://www.w3.org/2000/svg">
<path d="M8.1304 14.1259H11.8688M7.1712 12.8709C6.6119 12.2715 6.23104 11.5078 6.07678 10.6764C5.92253 9.84506 6.0018 8.98334 6.30458 8.20024C6.60737 7.41715 7.12006 6.74783 7.77783 6.27693C8.4356 5.80603 9.20892 5.55469 10 5.55469C10.7911 5.55469 11.5644 5.80603 12.2222 6.27693C12.8799 6.74783 13.3926 7.41715 13.6954 8.20024C13.9982 8.98334 14.0775 9.84506 13.9232 10.6764C13.769 11.5078 13.3881 12.2715 12.8288 12.8709L12.3904 13.3398C12.1398 13.6084 11.941 13.9273 11.8053 14.2782C11.6697 14.6292 11.6 15.0053 11.6 15.3851V15.8403C11.6 16.295 11.4314 16.731 11.1314 17.0526C10.8313 17.3741 10.4243 17.5547 10 17.5547C9.57565 17.5547 9.16869 17.3741 8.86863 17.0526C8.56857 16.731 8.4 16.295 8.4 15.8403V15.3851C8.4 14.6179 8.1152 13.8816 7.6096 13.3398L7.1712 12.8709Z" stroke="currentColor" stroke-width="1.5" stroke-linejoin="round"/>
<line x1="10.25" y1="3.5" x2="10.25" y2="1.5" stroke="currentColor" stroke-width="1.5"/>
<line x1="5.88373" y1="4.94439" x2="4.46952" y2="3.53018" stroke="currentColor" stroke-width="1.5"/>
<line y1="-0.75" x2="2" y2="-0.75" transform="matrix(0.707107 -0.707107 -0.707107 -0.707107 14 4.41406)" stroke="currentColor" stroke-width="1.5"/>
<line x1="2" y1="9.25" x2="4" y2="9.25" stroke="currentColor" stroke-width="1.5"/>
<line x1="16" y1="9.25" x2="18" y2="9.25" stroke="currentColor" stroke-width="1.5"/>
</svg>
