<svg width="32" height="32" viewBox="0 0 32 32" fill="none" xmlns="http://www.w3.org/2000/svg">
<path d="M11.4307 3.56445C11.4675 3.56569 11.5043 3.56705 11.541 3.57031C11.5603 3.57203 11.5794 3.57488 11.5986 3.57715C11.6372 3.5817 11.6757 3.586 11.7139 3.59277C11.7332 3.59621 11.7522 3.60147 11.7715 3.60547C11.8496 3.62169 11.9264 3.6426 12.002 3.66797C12.0155 3.67252 12.0295 3.67582 12.043 3.68066L12.0664 3.68848C12.0896 3.69715 12.1119 3.70824 12.1348 3.71777C12.1632 3.7296 12.1919 3.74077 12.2197 3.75391C12.2416 3.76421 12.2627 3.77601 12.2842 3.78711C12.3185 3.80481 12.3525 3.82306 12.3857 3.84277C12.4063 3.85492 12.4262 3.86796 12.4463 3.88086C12.4768 3.90045 12.5066 3.92107 12.5361 3.94238C12.5561 3.95682 12.5762 3.97111 12.5957 3.98633C12.6235 4.00806 12.651 4.0304 12.6777 4.05371C12.7001 4.07319 12.7225 4.09271 12.7441 4.11328C12.7621 4.1304 12.7785 4.14913 12.7959 4.16699C12.9095 4.28359 13.0125 4.41414 13.0977 4.56152L13.6611 5.53809H18.7764L19.3398 4.5625C19.8922 3.6061 21.1158 3.27882 22.0723 3.83105L23.8037 4.83105C24.7602 5.38328 25.0882 6.60596 24.5361 7.5625L23.8057 8.82617L26.1992 12.9717H27.6602C28.7647 12.9717 29.6602 13.8671 29.6602 14.9717V16.9717C29.66 18.0761 28.7646 18.9717 27.6602 18.9717H26.2002L23.8086 23.1143L24.5391 24.3799C25.0913 25.3365 24.7632 26.56 23.8066 27.1123L22.0752 28.1123C21.1186 28.6646 19.8951 28.3365 19.3428 27.3799L18.7812 26.4062H13.6592L13.0967 27.3809C13.0631 27.439 13.0266 27.4944 12.9883 27.5479C12.973 27.5692 12.9555 27.5888 12.9395 27.6094C12.9164 27.639 12.8936 27.6683 12.8691 27.6963C12.8454 27.7235 12.8199 27.7487 12.7949 27.7744C12.7756 27.7943 12.7573 27.815 12.7373 27.834C12.7105 27.8593 12.6823 27.8826 12.6543 27.9062C12.6341 27.9233 12.6145 27.9409 12.5938 27.957C12.5683 27.9769 12.5419 27.9952 12.5156 28.0137C12.4891 28.0323 12.4628 28.0511 12.4355 28.0684C12.4084 28.0856 12.3804 28.1013 12.3525 28.1172C12.3279 28.1312 12.3035 28.1453 12.2783 28.1582C12.2473 28.1741 12.2154 28.1879 12.1836 28.2021C12.1573 28.2139 12.1312 28.2257 12.1045 28.2363C12.0771 28.2472 12.0493 28.2569 12.0215 28.2666C11.99 28.2775 11.9587 28.2885 11.9268 28.2979C11.8966 28.3067 11.8664 28.3149 11.8359 28.3223C11.8081 28.329 11.7801 28.3343 11.752 28.3398C11.7211 28.346 11.6904 28.3528 11.6592 28.3574C11.6258 28.3624 11.5922 28.3658 11.5586 28.3691C11.5284 28.3721 11.4982 28.3744 11.4678 28.376C11.4443 28.3772 11.421 28.3775 11.3975 28.3779C11.3558 28.3787 11.3142 28.3798 11.2725 28.3779C11.2581 28.3773 11.2439 28.375 11.2295 28.374C11.1822 28.3709 11.1351 28.3669 11.0879 28.3604C11.0692 28.3577 11.0508 28.3537 11.0322 28.3506C10.9914 28.3437 10.9507 28.3366 10.9102 28.3271C10.8862 28.3215 10.8627 28.3141 10.8389 28.3076C10.6768 28.2633 10.5166 28.2012 10.3643 28.1133L8.63281 27.1133C8.57318 27.0788 8.51562 27.0414 8.46094 27.002C8.4102 26.9654 8.3618 26.9262 8.31543 26.8857C8.29646 26.8692 8.27897 26.8512 8.26074 26.834C8.23247 26.8073 8.2042 26.781 8.17773 26.7529C8.15948 26.7336 8.14239 26.7133 8.125 26.6934C8.10292 26.668 8.08121 26.6425 8.06055 26.6162C8.04369 26.5948 8.02762 26.5728 8.01172 26.5508C7.99069 26.5216 7.97051 26.492 7.95117 26.4619C7.9363 26.4387 7.92207 26.4153 7.9082 26.3916C7.89316 26.3659 7.87908 26.3398 7.86523 26.3135C7.8511 26.2866 7.8371 26.2598 7.82422 26.2324C7.81031 26.2028 7.79759 26.1728 7.78516 26.1426C7.77454 26.1168 7.76245 26.0916 7.75293 26.0654C7.74476 26.043 7.7388 26.0198 7.73145 25.9971C7.71261 25.9389 7.69706 25.8799 7.68359 25.8203C7.67604 25.7869 7.66794 25.7535 7.66211 25.7197C7.65803 25.6961 7.65558 25.6722 7.65234 25.6484C7.64802 25.6166 7.64342 25.5848 7.64062 25.5527C7.63714 25.5128 7.63585 25.4728 7.63477 25.4326C7.63409 25.4072 7.6335 25.3819 7.63379 25.3564C7.63408 25.3307 7.63543 25.3051 7.63672 25.2793C7.63843 25.2451 7.64007 25.2109 7.64355 25.1768C7.64655 25.1474 7.65095 25.1182 7.65527 25.0889C7.65931 25.0615 7.66374 25.0341 7.66895 25.0068C7.67483 24.9759 7.6801 24.9448 7.6875 24.9141C7.69727 24.8734 7.70925 24.8332 7.72168 24.793C7.72708 24.7755 7.7314 24.7576 7.7373 24.7402C7.75373 24.6918 7.77356 24.6443 7.79395 24.5967C7.82517 24.5237 7.85973 24.4513 7.90039 24.3809L8.29492 23.6963L5.56641 18.9717H4.7793L4.58789 18.9619C4.58657 18.9618 4.58531 18.9611 4.58398 18.9609C4.55669 18.9583 4.52989 18.953 4.50293 18.9492C4.46389 18.9438 4.425 18.9393 4.38672 18.9316C4.36504 18.9273 4.34368 18.922 4.32227 18.917C4.28077 18.9073 4.23967 18.897 4.19922 18.8848C4.1761 18.8778 4.15362 18.8691 4.13086 18.8613C4.09399 18.8487 4.05734 18.836 4.02148 18.8213C3.99228 18.8093 3.96404 18.7955 3.93555 18.7822C3.91042 18.7705 3.8849 18.7598 3.86035 18.7471C3.82845 18.7305 3.79747 18.7125 3.7666 18.6943C3.74227 18.68 3.71799 18.6657 3.69434 18.6504C3.66601 18.6321 3.63864 18.6125 3.61133 18.5928C3.58886 18.5766 3.56667 18.5601 3.54492 18.543C3.52016 18.5235 3.49548 18.504 3.47168 18.4834C3.44501 18.4603 3.41896 18.4366 3.39355 18.4121C3.37663 18.3958 3.3601 18.3792 3.34375 18.3623C3.31567 18.3333 3.28899 18.3031 3.2627 18.2725C3.24672 18.2539 3.23111 18.235 3.21582 18.2158C3.1957 18.1906 3.17613 18.1649 3.15723 18.1387C3.13917 18.1136 3.1214 18.0884 3.10449 18.0625C3.08677 18.0353 3.07012 18.0075 3.05371 17.9795C3.03854 17.9536 3.02281 17.928 3.00879 17.9014C2.99403 17.8733 2.98122 17.8443 2.96777 17.8154C2.95435 17.7867 2.94078 17.758 2.92871 17.7285C2.91885 17.7044 2.9103 17.6798 2.90137 17.6553C2.88843 17.6198 2.87521 17.5843 2.86426 17.5479C2.82829 17.4281 2.80303 17.3038 2.79004 17.1758L2.7793 16.9717V14.9717C2.7793 14.8958 2.78377 14.8207 2.79199 14.7471C2.7978 14.695 2.8057 14.6435 2.81543 14.5928L2.82031 14.5684C2.82382 14.5512 2.82907 14.5345 2.83301 14.5176C2.8403 14.4862 2.84672 14.4547 2.85547 14.4238L2.86914 14.377C2.87407 14.3611 2.88043 14.3458 2.88574 14.3301C2.89833 14.2929 2.9111 14.2559 2.92578 14.2197C2.93424 14.1989 2.94399 14.1787 2.95312 14.1582C2.96858 14.1235 2.98462 14.0893 3.00195 14.0557C3.01346 14.0334 3.0248 14.011 3.03711 13.9893C3.05647 13.955 3.07734 13.9217 3.09863 13.8887C3.10937 13.872 3.11965 13.8552 3.13086 13.8389C3.15555 13.803 3.18207 13.7685 3.20898 13.7344C3.22077 13.7194 3.23195 13.704 3.24414 13.6895C3.3194 13.5994 3.40241 13.516 3.49219 13.4404C3.52307 13.4144 3.55546 13.3903 3.58789 13.3662C3.60225 13.3555 3.6162 13.3443 3.63086 13.334C3.65914 13.3141 3.68845 13.2958 3.71777 13.2773C3.74286 13.2616 3.76812 13.2461 3.79395 13.2314C3.81673 13.2185 3.83995 13.2064 3.86328 13.1943C3.89597 13.1775 3.92919 13.1616 3.96289 13.1465C3.98577 13.1362 4.0089 13.1266 4.03223 13.1172C4.06408 13.1043 4.09627 13.0923 4.12891 13.0811C4.15708 13.0714 4.18514 13.0612 4.21387 13.0527C4.237 13.0459 4.26071 13.0411 4.28418 13.0352C4.44266 12.9948 4.60823 12.9717 4.7793 12.9717H5.56836L8.2959 8.24512L7.90137 7.56152C7.83279 7.44268 7.77822 7.3196 7.73633 7.19434C7.72964 7.17435 7.72477 7.15388 7.71875 7.13379C7.70753 7.09632 7.69545 7.05927 7.68652 7.02148C7.67865 6.98819 7.67408 6.95436 7.66797 6.9209C7.66409 6.89963 7.65845 6.87874 7.65527 6.85742L7.64844 6.80957C7.64541 6.78522 7.6447 6.7607 7.64258 6.73633C7.64009 6.70764 7.63698 6.67908 7.63574 6.65039C7.63431 6.61747 7.63457 6.58461 7.63477 6.55176C7.635 6.51487 7.63641 6.47813 7.63867 6.44141C7.63985 6.42217 7.64085 6.40297 7.64258 6.38379C7.64613 6.34457 7.65041 6.30549 7.65625 6.2666C7.66047 6.23847 7.66549 6.21052 7.6709 6.18262C7.67668 6.15282 7.68331 6.12324 7.69043 6.09375C7.6981 6.06195 7.70661 6.03042 7.71582 5.99902C7.72305 5.97441 7.73109 5.9501 7.73926 5.92578C7.7519 5.88809 7.76443 5.85038 7.7793 5.81348C7.78714 5.79401 7.79623 5.77508 7.80469 5.75586C7.81952 5.72214 7.83389 5.68819 7.85059 5.65527C7.86456 5.62775 7.88024 5.60112 7.89551 5.57422C7.91133 5.54632 7.92714 5.51839 7.94434 5.49121C7.96083 5.46515 7.97932 5.44039 7.99707 5.41504C8.01419 5.39058 8.03055 5.36555 8.04883 5.3418C8.06728 5.31783 8.08684 5.29468 8.10645 5.27148C8.25161 5.09968 8.42778 4.94902 8.63379 4.83008L10.3652 3.83008C10.4425 3.78545 10.5222 3.74707 10.6025 3.71387C10.6081 3.71163 10.6136 3.70922 10.6191 3.70703C10.6554 3.6922 10.6918 3.6784 10.7285 3.66602C10.7414 3.66166 10.7546 3.65837 10.7676 3.6543C10.8117 3.64043 10.8559 3.62786 10.9004 3.61719C10.9299 3.61011 10.9596 3.60432 10.9893 3.59863C11.0192 3.59289 11.0491 3.58735 11.0791 3.58301C11.1064 3.57906 11.1338 3.57604 11.1611 3.57324C11.1963 3.56964 11.2314 3.56715 11.2666 3.56543C11.2816 3.5647 11.2965 3.56289 11.3115 3.5625H11.3848C11.4001 3.56266 11.4154 3.56394 11.4307 3.56445ZM10.7314 23.4727C10.6358 23.4177 10.5132 23.4513 10.458 23.5469L9.45801 25.2783C9.40281 25.3739 9.43572 25.4965 9.53125 25.5518L11.2637 26.5518C11.3593 26.6069 11.4819 26.5741 11.5371 26.4785L12.5371 24.7471C12.5923 24.6514 12.5595 24.5279 12.4639 24.4727L10.7314 23.4727ZM21.9805 23.5469C21.9252 23.4512 21.8027 23.4184 21.707 23.4736L19.9756 24.4736C19.8799 24.5289 19.8471 24.6514 19.9023 24.7471L20.9023 26.4785C20.9576 26.5741 21.0801 26.607 21.1758 26.5518L22.9072 25.5518C23.0029 25.4965 23.0357 25.374 22.9805 25.2783L21.9805 23.5469ZM14.3486 7.03711C14.4489 7.81369 14.0857 8.6104 13.3652 9.02637L11.6338 10.0264C10.8225 10.4948 9.82114 10.328 9.19824 9.68359L7.26465 13.0322C8.1345 13.2492 8.7793 14.0346 8.7793 14.9717V16.9717C8.77916 17.9088 8.13374 18.6924 7.26367 18.9092L9.19727 22.2578C9.82022 21.6141 10.8218 21.4488 11.6328 21.917L13.3643 22.917C14.0846 23.3329 14.4478 24.1288 14.3477 24.9053H18.0908L18.0898 24.8955C18.0868 24.8712 18.0861 24.8466 18.084 24.8223C18.0815 24.7936 18.0784 24.765 18.0771 24.7363C18.0757 24.7034 18.076 24.6705 18.0762 24.6377C18.0764 24.6008 18.0778 24.5641 18.0801 24.5273C18.0813 24.5081 18.0823 24.4889 18.084 24.4697C18.0875 24.4305 18.0918 24.3914 18.0977 24.3525C18.1019 24.3244 18.1069 24.2965 18.1123 24.2686C18.1181 24.2388 18.1247 24.2092 18.1318 24.1797C18.1395 24.1479 18.148 24.1164 18.1572 24.085C18.1645 24.0604 18.1725 24.036 18.1807 24.0117C18.1933 23.974 18.2058 23.9363 18.2207 23.8994C18.2285 23.88 18.2376 23.861 18.2461 23.8418C18.2609 23.8081 18.2753 23.7741 18.292 23.7412C18.306 23.7137 18.3217 23.6871 18.3369 23.6602C18.3527 23.6323 18.3685 23.6043 18.3857 23.5771C18.4022 23.5511 18.4207 23.5263 18.4385 23.501C18.4556 23.4765 18.472 23.4515 18.4902 23.4277C18.5087 23.4038 18.5282 23.3806 18.5479 23.3574C18.693 23.1856 18.8692 23.035 19.0752 22.916L20.8066 21.916C20.8854 21.8705 20.967 21.8325 21.0488 21.7988C21.0529 21.7972 21.0565 21.7946 21.0605 21.793C21.0968 21.7781 21.1332 21.7643 21.1699 21.752C21.1828 21.7476 21.196 21.7443 21.209 21.7402C21.2531 21.7264 21.2973 21.7138 21.3418 21.7031C21.3713 21.6961 21.401 21.6903 21.4307 21.6846C21.4606 21.6788 21.4905 21.6733 21.5205 21.6689C21.5478 21.665 21.5752 21.662 21.6025 21.6592C21.6377 21.6556 21.6728 21.6531 21.708 21.6514C21.723 21.6506 21.7379 21.6488 21.7529 21.6484H21.8262C21.8415 21.6486 21.8568 21.6499 21.8721 21.6504C21.909 21.6516 21.9457 21.653 21.9824 21.6562C22.0017 21.658 22.0208 21.6608 22.04 21.6631C22.0786 21.6676 22.1171 21.6719 22.1553 21.6787C22.1746 21.6821 22.1936 21.6874 22.2129 21.6914C22.291 21.7076 22.3678 21.7285 22.4434 21.7539C22.4569 21.7585 22.4709 21.7618 22.4844 21.7666L22.5078 21.7744C22.531 21.7831 22.5533 21.7942 22.5762 21.8037C22.6046 21.8155 22.6333 21.8267 22.6611 21.8398C22.683 21.8501 22.7041 21.8619 22.7256 21.873C22.7428 21.8819 22.7604 21.89 22.7773 21.8994L24.6328 18.6855C24.6135 18.6739 24.5941 18.6626 24.5752 18.6504C24.5469 18.6321 24.5195 18.6125 24.4922 18.5928C24.4697 18.5766 24.4475 18.5601 24.4258 18.543C24.401 18.5235 24.3763 18.504 24.3525 18.4834C24.3259 18.4603 24.2998 18.4366 24.2744 18.4121C24.2575 18.3958 24.241 18.3792 24.2246 18.3623C24.1965 18.3333 24.1699 18.3031 24.1436 18.2725C24.1276 18.2539 24.112 18.235 24.0967 18.2158C24.0766 18.1906 24.057 18.1649 24.0381 18.1387C24.02 18.1136 24.0023 18.0884 23.9854 18.0625C23.9676 18.0353 23.951 18.0075 23.9346 17.9795C23.9194 17.9536 23.9037 17.928 23.8896 17.9014C23.8749 17.8733 23.8621 17.8443 23.8486 17.8154C23.8352 17.7867 23.8216 17.758 23.8096 17.7285C23.7997 17.7044 23.7912 17.6798 23.7822 17.6553C23.7693 17.6198 23.7561 17.5843 23.7451 17.5479C23.7092 17.4281 23.6839 17.3038 23.6709 17.1758L23.6602 16.9717V14.9717C23.6602 14.8958 23.6646 14.8207 23.6729 14.7471C23.6787 14.695 23.6866 14.6435 23.6963 14.5928L23.7012 14.5684C23.7047 14.5512 23.7099 14.5345 23.7139 14.5176C23.7212 14.4862 23.7276 14.4547 23.7363 14.4238L23.75 14.377C23.7549 14.3611 23.7613 14.3458 23.7666 14.3301C23.7792 14.2929 23.792 14.2559 23.8066 14.2197C23.8151 14.1989 23.8249 14.1787 23.834 14.1582C23.8494 14.1235 23.8655 14.0893 23.8828 14.0557C23.8943 14.0334 23.9057 14.011 23.918 13.9893C23.9373 13.955 23.9582 13.9217 23.9795 13.8887C23.9902 13.872 24.0005 13.8552 24.0117 13.8389C24.0364 13.803 24.0629 13.7685 24.0898 13.7344C24.1016 13.7194 24.1128 13.704 24.125 13.6895C24.2003 13.5994 24.2833 13.516 24.373 13.4404C24.4039 13.4144 24.4363 13.3903 24.4688 13.3662C24.4831 13.3555 24.4971 13.3443 24.5117 13.334C24.54 13.3141 24.5693 13.2958 24.5986 13.2773C24.6098 13.2703 24.6205 13.2626 24.6318 13.2559L22.7754 10.04C22.7561 10.0507 22.7374 10.0622 22.7178 10.0723C22.6867 10.0882 22.6548 10.102 22.623 10.1162C22.5968 10.128 22.5707 10.1398 22.5439 10.1504C22.5165 10.1613 22.4888 10.171 22.4609 10.1807C22.4295 10.1916 22.3982 10.2026 22.3662 10.2119C22.3361 10.2207 22.3059 10.2289 22.2754 10.2363C22.2476 10.2431 22.2195 10.2483 22.1914 10.2539C22.1605 10.26 22.1298 10.2668 22.0986 10.2715C22.0652 10.2765 22.0317 10.2799 21.998 10.2832C21.9678 10.2862 21.9376 10.2884 21.9072 10.29C21.8838 10.2913 21.8604 10.2916 21.8369 10.292C21.7953 10.2927 21.7537 10.2939 21.7119 10.292C21.6976 10.2913 21.6833 10.2891 21.6689 10.2881C21.6217 10.2849 21.5745 10.281 21.5273 10.2744C21.5087 10.2718 21.4903 10.2678 21.4717 10.2646C21.4309 10.2578 21.3901 10.2507 21.3496 10.2412C21.3256 10.2356 21.3022 10.2282 21.2783 10.2217C21.1162 10.1774 20.956 10.1153 20.8037 10.0273L19.0723 9.02734C19.0126 8.99291 18.9551 8.95543 18.9004 8.91602C18.8497 8.87944 18.8013 8.84029 18.7549 8.7998C18.7359 8.78324 18.7184 8.76522 18.7002 8.74805C18.6719 8.72141 18.6437 8.69503 18.6172 8.66699C18.5989 8.64765 18.5818 8.62739 18.5645 8.60742C18.5424 8.58207 18.5207 8.55658 18.5 8.53027C18.4831 8.50882 18.4671 8.4869 18.4512 8.46484C18.4301 8.43569 18.41 8.4061 18.3906 8.37598C18.3758 8.35281 18.3615 8.32937 18.3477 8.30566C18.3326 8.27996 18.3185 8.25383 18.3047 8.22754C18.2906 8.2007 18.2766 8.17389 18.2637 8.14648C18.2498 8.11689 18.237 8.08684 18.2246 8.05664C18.214 8.03085 18.2019 8.00568 18.1924 7.97949C18.1842 7.95704 18.1783 7.93385 18.1709 7.91113C18.1539 7.85876 18.1404 7.80553 18.1279 7.75195L18.1055 7.65039L18.1045 7.64844C18.1036 7.64355 18.1024 7.6387 18.1016 7.63379C18.0975 7.61015 18.095 7.58629 18.0918 7.5625C18.0875 7.53066 18.0829 7.49886 18.0801 7.4668C18.0766 7.42687 18.0753 7.38684 18.0742 7.34668C18.0735 7.3213 18.073 7.29594 18.0732 7.27051C18.0735 7.24478 18.0749 7.21912 18.0762 7.19336C18.0779 7.15918 18.0795 7.12499 18.083 7.09082C18.0848 7.07296 18.0856 7.05496 18.0879 7.03711H14.3486ZM15.3438 11.3408C15.684 11.1445 16.1031 11.1444 16.4434 11.3408L19.6318 13.1816C19.9719 13.3781 20.1815 13.741 20.1816 14.1338V17.8154L20.1719 17.9609C20.1271 18.2963 19.9294 18.5956 19.6318 18.7676L16.4434 20.6084C16.1031 20.8048 15.684 20.8048 15.3438 20.6084L12.1553 18.7676C11.8151 18.5711 11.6055 18.2083 11.6055 17.8154V14.1338C11.6056 13.7409 11.8151 13.3781 12.1553 13.1816L15.3438 11.3408ZM13.6055 14.6543V17.2959L15.8945 18.6172L18.1816 17.2959L18.1826 14.6543L15.8936 13.333L13.6055 14.6543ZM4.7793 14.7686C4.66884 14.7686 4.5791 14.8583 4.5791 14.9688V16.9688C4.5791 17.0792 4.66884 17.1689 4.7793 17.1689H6.7793C6.88975 17.1689 6.97949 17.0792 6.97949 16.9688V14.9688C6.97949 14.8583 6.88975 14.7686 6.7793 14.7686H4.7793ZM25.6602 14.7686C25.5497 14.7686 25.46 14.8583 25.46 14.9688V16.9688C25.46 17.0792 25.5497 17.1689 25.6602 17.1689H27.6602C27.7706 17.1689 27.8604 17.0792 27.8604 16.9688V14.9688C27.8604 14.8583 27.7706 14.7686 27.6602 14.7686H25.6602ZM21.1729 5.3916C21.0772 5.33637 20.9546 5.36919 20.8994 5.46484L19.8994 7.19629C19.8442 7.29191 19.8771 7.41446 19.9727 7.46973L21.7051 8.46973C21.8007 8.52483 21.9233 8.49209 21.9785 8.39648L22.9785 6.66504C23.0337 6.56953 23.0006 6.44695 22.9053 6.3916L21.1729 5.3916ZM11.5391 5.46094C11.4838 5.36528 11.3613 5.33247 11.2656 5.3877L9.53418 6.3877C9.43852 6.44292 9.40571 6.56547 9.46094 6.66113L10.4609 8.39258C10.5162 8.48821 10.6387 8.52104 10.7344 8.46582L12.4658 7.46582C12.5615 7.41059 12.5943 7.28804 12.5391 7.19238L11.5391 5.46094ZM18.1992 7.99609C18.2077 8.01889 18.2192 8.041 18.2285 8.06348C18.2162 8.03391 18.2032 8.0047 18.1924 7.97461L18.1992 7.99609Z" fill="currentColor"/>
</svg>
