<svg width="20" height="20" viewBox="0 0 20 20" fill="none" xmlns="http://www.w3.org/2000/svg">
<g clip-path="url(#clip0_10457_124125)">
<path d="M10.9473 12.0905C11.1883 11.8508 11.3797 11.5659 11.5107 11.2522C11.6416 10.9385 11.7094 10.6021 11.7103 10.2621C11.7112 9.92218 11.6452 9.58539 11.5159 9.27098C11.3867 8.95657 11.1968 8.6707 10.957 8.42969" stroke="currentColor" stroke-width="1.3"/>
<path d="M13.1191 14.1157C13.6443 13.5905 14.0609 12.967 14.3452 12.2808C14.6294 11.5946 14.7757 10.8592 14.7757 10.1164C14.7757 9.37371 14.6294 8.63825 14.3452 7.95206C14.0609 7.26587 13.6443 6.64238 13.1191 6.11719" stroke="currentColor" stroke-width="1.3"/>
<path d="M15.1445 16.2895C15.9515 15.4826 16.5916 14.5246 17.0283 13.4703C17.465 12.416 17.6898 11.2859 17.6898 10.1448C17.6898 9.00357 17.465 7.87356 17.0283 6.81924C16.5916 5.76492 15.9515 4.80694 15.1445 4" stroke="currentColor" stroke-width="1.3"/>
<path d="M3 7.5L3.00044 6.49978C3.00056 6.22372 3.22438 6 3.50044 6H9.50044C9.77667 6 10.0006 6.22399 10.0004 6.50022L10 7.5" stroke="currentColor" stroke-width="1.5"/>
<path d="M6.5 6V13.5" stroke="currentColor" stroke-width="1.5"/>
<path d="M5 13.5H8" stroke="currentColor" stroke-width="1.5"/>
</g>
<defs>
<clipPath id="clip0_10457_124125">
<rect width="20" height="20" fill="white"/>
</clipPath>
</defs>
</svg>
