<svg width="20" height="20" viewBox="0 0 20 20" fill="none" xmlns="http://www.w3.org/2000/svg">
<path d="M14.9457 5.05127C14.3066 4.38736 13.5373 3.86259 12.6859 3.50982C11.8346 3.15706 10.9197 2.98389 9.99834 3.00118C9.07818 2.98403 8.1644 3.15729 7.31436 3.51008C6.46431 3.86287 5.69635 4.38758 5.05867 5.05127C4.39251 5.68911 3.86575 6.45812 3.51163 7.30977C3.15751 8.16142 2.98371 9.07723 3.0012 9.99943C2.98405 10.92 3.15737 11.8342 3.5103 12.6846C3.86323 13.5349 4.38814 14.3032 5.05207 14.941C5.68993 15.6074 6.459 16.1343 7.31071 16.4885C8.16243 16.8427 9.07831 17.0164 10.0005 16.9988C10.921 17.0159 11.835 16.8426 12.6852 16.4896C13.5355 16.1366 14.3036 15.6116 14.9413 14.9476C15.6076 14.3096 16.1344 13.5404 16.4886 12.6886C16.8427 11.8367 17.0164 10.9207 16.9988 9.99833C17.0161 9.07659 16.8428 8.16122 16.4899 7.30957C16.137 6.45792 15.6121 5.68834 14.9479 5.04907M13.4997 9.99833V14.1975H11.0485V10.7H8.94926V14.1997H6.49922V9.99943H5.10045L9.99834 5.10076L15.247 10.0005L13.4997 9.99833Z" fill="#FFFFFF"/>
</svg>
