<svg width="20" height="20" viewBox="0 0 20 20" fill="none" xmlns="http://www.w3.org/2000/svg">
<path d="M15.7985 17L11.7936 12.9951V12.3618L11.58 12.1482C10.559 13.0223 9.23923 13.467 7.89746 13.3891C6.5557 13.3111 5.29624 12.7166 4.38333 11.7302C3.47041 10.7438 2.97498 9.44216 3.00097 8.09838C3.02696 6.7546 3.57235 5.4731 4.52273 4.52273C5.4731 3.57235 6.7546 3.02696 8.09838 3.00097C9.44216 2.97498 10.7438 3.47041 11.7302 4.38333C12.7166 5.29624 13.3111 6.5557 13.3891 7.89746C13.467 9.23923 13.0223 10.559 12.1482 11.58L12.3618 11.7936H12.9951L17 15.7985L15.7985 16.9989V17ZM8.18919 4.58477C7.47631 4.58477 6.77943 4.79617 6.18669 5.19223C5.59394 5.58829 5.13195 6.15122 4.85914 6.80984C4.58633 7.46846 4.51495 8.19319 4.65403 8.89238C4.79311 9.59157 5.1364 10.2338 5.64048 10.7379C6.14457 11.242 6.78682 11.5853 7.48601 11.7244C8.1852 11.8634 8.90992 11.7921 9.56855 11.5192C10.2272 11.2464 10.7901 10.7844 11.1862 10.1917C11.5822 9.59896 11.7936 8.90208 11.7936 8.18919C11.7925 7.23359 11.4124 6.31745 10.7367 5.64173C10.0609 4.96602 9.1448 4.5859 8.18919 4.58477Z" fill="currentColor"/>
</svg>
