<svg width="16" height="16" viewBox="0 0 16 16" fill="none" xmlns="http://www.w3.org/2000/svg">
<path d="M7.55273 2.00195C7.95011 2.0023 8.33229 2.16041 8.61328 2.44141L13.4795 7.30762L13.582 7.42188C14.0306 7.97169 14.0304 8.76551 13.582 9.31543L13.4795 9.42871L9.42676 13.4814L9.31348 13.584C8.72436 14.0645 7.85485 14.0305 7.30566 13.4814L2.43945 8.61523C2.19356 8.36919 2.04194 8.04627 2.00781 7.70312L2 7.55469L2.00098 3.5C2.0011 2.67152 2.67253 1.99981 3.50098 2L7.55273 2.00195ZM3.50098 3.2002C3.33523 3.20011 3.2002 3.33523 3.2002 3.50098V7.55469C3.2003 7.63396 3.23211 7.71046 3.28809 7.7666L8.1543 12.6328C8.27136 12.7498 8.46098 12.7496 8.57812 12.6328L12.6309 8.58008C12.7474 8.46291 12.7477 8.27322 12.6309 8.15625L7.76465 3.29004C7.70856 3.23395 7.63204 3.20234 7.55273 3.20215L3.50098 3.2002ZM5 4.35156C5.3614 4.35181 5.6543 4.6444 5.6543 5.00586C5.6543 5.36732 5.3614 5.65991 5 5.66016C4.63838 5.66016 4.34473 5.36747 4.34473 5.00586C4.34473 4.64425 4.63839 4.35156 5 4.35156Z" fill="#888B9A"/>
</svg>
