<svg width="32" height="32" viewBox="0 0 32 32" fill="none" xmlns="http://www.w3.org/2000/svg">
<path d="M23 4C24.1046 4 25 4.89543 25 6V12.2109L25.918 11.293C26.699 10.512 27.9651 10.512 28.7461 11.293L30.1602 12.707C30.9412 13.4881 30.9412 14.7541 30.1602 15.5352L25 20.6953V26C25 27.1046 24.1046 28 23 28H7C5.89543 28 5 27.1046 5 26V6C5 4.89543 5.89543 4 7 4H23ZM16.585 22.7471L15.9365 24.8945C15.8284 25.2527 16.1348 25.5878 16.4883 25.5332L16.5586 25.5176L18.707 24.8682L19.5557 24.0195L17.4336 21.8984L16.585 22.7471ZM27.6855 12.3535C27.4903 12.1583 27.1738 12.1583 26.9785 12.3535L18.499 20.833L20.6201 22.9551L29.0996 14.4746C29.2948 14.2793 29.2949 13.9628 29.0996 13.7676L27.6855 12.3535ZM10 16C9.44772 16 9 16.4477 9 17C9 17.5523 9.44772 18 10 18C10.5523 18 11 17.5523 11 17C11 16.4477 10.5523 16 10 16ZM14 16C13.4477 16 13 16.4477 13 17C13 17.5523 13.4477 18 14 18H17C17.5523 18 18 17.5523 18 17C18 16.4477 17.5523 16 17 16H14ZM10 12C9.44772 12 9 12.4477 9 13C9 13.5523 9.44772 14 10 14C10.5523 14 11 13.5523 11 13C11 12.4477 10.5523 12 10 12ZM14 12C13.4477 12 13 12.4477 13 13C13 13.5523 13.4477 14 14 14H20C20.5523 14 21 13.5523 21 13C21 12.4477 20.5523 12 20 12H14ZM10 8C9.44772 8 9 8.44772 9 9C9 9.55228 9.44772 10 10 10C10.5523 10 11 9.55228 11 9C11 8.44772 10.5523 8 10 8ZM14 8C13.4477 8 13 8.44772 13 9C13 9.55228 13.4477 10 14 10H20C20.5523 10 21 9.55228 21 9C21 8.44772 20.5523 8 20 8H14Z" fill="currentColor"/>
</svg>
