<svg width="20" height="20" viewBox="0 0 20 20" fill="none" xmlns="http://www.w3.org/2000/svg">
<mask id="path-1-inside-1_10709_123243" fill="white">
<path d="M10.499 2C14.6412 2 17.999 5.35786 17.999 9.5C17.999 13.6421 14.6412 17 10.499 17C9.38261 17 8.32413 16.7539 7.37207 16.3164L4.06934 16.8672C3.34963 16.9868 2.74859 16.32 2.94141 15.6162L3.73047 12.7334C3.26193 11.7543 2.99902 10.6579 2.99902 9.5C2.99902 5.35796 6.35703 2.00016 10.499 2Z"/>
</mask>
<path d="M10.499 2L10.499 0.5L10.499 0.5L10.499 2ZM10.499 17L10.499 18.5H10.499V17ZM7.37207 16.3164L7.99841 14.9534L7.57977 14.7611L7.12533 14.8368L7.37207 16.3164ZM4.06934 16.8672L4.31521 18.3469L4.31608 18.3468L4.06934 16.8672ZM2.94141 15.6162L4.38809 16.0126L4.38819 16.0122L2.94141 15.6162ZM3.73047 12.7334L5.17725 13.1294L5.32484 12.5902L5.08352 12.0859L3.73047 12.7334ZM10.499 2V3.5C13.8127 3.5 16.499 6.18629 16.499 9.5H17.999H19.499C19.499 4.52944 15.4696 0.5 10.499 0.5V2ZM17.999 9.5H16.499C16.499 12.8137 13.8127 15.5 10.499 15.5V17V18.5C15.4696 18.5 19.499 14.4706 19.499 9.5H17.999ZM10.499 17L10.4991 15.5C9.6053 15.5 8.75996 15.3034 7.99841 14.9534L7.37207 16.3164L6.74573 17.6794C7.88831 18.2044 9.15993 18.4999 10.499 18.5L10.499 17ZM7.37207 16.3164L7.12533 14.8368L3.8226 15.3876L4.06934 16.8672L4.31608 18.3468L7.61881 17.796L7.37207 16.3164ZM4.06934 16.8672L3.82346 15.3875C4.18472 15.3274 4.48414 15.662 4.38809 16.0126L2.94141 15.6162L1.49472 15.2198C1.01305 16.9779 2.51453 18.6461 4.31521 18.3469L4.06934 16.8672ZM2.94141 15.6162L4.38819 16.0122L5.17725 13.1294L3.73047 12.7334L2.28369 12.3374L1.49462 15.2202L2.94141 15.6162ZM3.73047 12.7334L5.08352 12.0859C4.70943 11.3042 4.49902 10.4285 4.49902 9.5H2.99902H1.49902C1.49902 10.8872 1.81443 12.2044 2.37742 13.3809L3.73047 12.7334ZM2.99902 9.5H4.49902C4.49902 6.18645 7.18541 3.50013 10.4991 3.5L10.499 2L10.499 0.5C5.52864 0.500195 1.49902 4.52948 1.49902 9.5H2.99902Z" fill="currentColor" mask="url(#path-1-inside-1_10709_123243)"/>
<path d="M10.7315 5.20312C11.5682 5.20312 12.2368 5.43908 12.7371 5.91099C13.2457 6.3829 13.5 7.02756 13.5 7.84498C13.5 8.6961 13.2375 9.33655 12.7125 9.76633C12.297 10.1065 11.8989 10.312 11.3198 10.383C11.0419 10.417 10.81 10.6306 10.7962 10.9103C10.7824 11.1899 10.5517 11.4096 10.2717 11.4096H10.248C9.94424 11.4096 9.69799 11.1633 9.69799 10.8596V10.4173C9.69799 9.86929 10.1461 9.4492 10.6879 9.3667C11.0386 9.31328 11.2769 9.22317 11.519 9.09638C11.9456 8.87728 12.1588 8.46015 12.1588 7.84498C12.1588 7.39835 12.0317 7.04863 11.7774 6.79582C11.5313 6.54301 11.1868 6.41661 10.7438 6.41661C10.3009 6.41661 9.95227 6.5388 9.69799 6.78318C9.58556 6.89123 9.49799 7.01821 9.43527 7.16414C9.29171 7.49815 9.02183 7.80706 8.65828 7.80706C8.29472 7.80706 7.99006 7.50865 8.06819 7.15359C8.12307 6.90418 8.21108 6.67116 8.33221 6.45453C8.55369 6.05846 8.8695 5.75088 9.27964 5.53178C9.69799 5.31268 10.182 5.20312 10.7315 5.20312ZM10.3441 14.2031C10.0898 14.2031 9.87651 14.1146 9.70425 13.9377C9.53199 13.7607 9.44586 13.5416 9.44586 13.2804C9.44586 13.0191 9.53199 12.8 9.70425 12.6231C9.87651 12.4461 10.0898 12.3576 10.3441 12.3576C10.5902 12.3576 10.7993 12.4461 10.9716 12.6231C11.1438 12.8 11.23 13.0191 11.23 13.2804C11.23 13.5416 11.1438 13.7607 10.9716 13.9377C10.7993 14.1146 10.5902 14.2031 10.3441 14.2031Z" fill="currentColor"/>
</svg>
