<svg width="20" height="20" viewBox="0 0 20 20" fill="none" xmlns="http://www.w3.org/2000/svg">
<mask id="path-1-inside-1_10234_120670" fill="white">
<path d="M10 6.875L11.559 7.823L11.145 6.035L12.545 4.835L10.706 4.68L10 3L9.281 4.68L7.455 4.839L8.842 6.039L8.409 7.824L10 6.875ZM11.909 17H8.091V8.727H11.909V17ZM3 13.182V17H6.818V13.182H3ZM5.545 15.727H4.273V14.455H5.545V15.727ZM13.181 10.637V17H17V10.636H13.182M15.727 15.727H14.455V11.909H15.728L15.727 15.727Z"/>
</mask>
<path d="M10 6.875L11.559 7.823L11.145 6.035L12.545 4.835L10.706 4.68L10 3L9.281 4.68L7.455 4.839L8.842 6.039L8.409 7.824L10 6.875ZM11.909 17H8.091V8.727H11.909V17ZM3 13.182V17H6.818V13.182H3ZM5.545 15.727H4.273V14.455H5.545V15.727ZM13.181 10.637V17H17V10.636H13.182M15.727 15.727H14.455V11.909H15.728L15.727 15.727Z" fill="currentColor"/>
<path d="M10 6.875L10.5196 6.02057L10.005 5.70765L9.48773 6.01618L10 6.875ZM11.559 7.823L11.0394 8.67743L13.0691 9.91161L12.5332 7.59742L11.559 7.823ZM11.145 6.035L10.4942 5.27574L10.0341 5.67015L10.1708 6.26058L11.145 6.035ZM12.545 4.835L13.1958 5.59426L15.01 4.03922L12.629 3.83853L12.545 4.835ZM10.706 4.68L9.7841 5.06742L10.0187 5.62561L10.622 5.67647L10.706 4.68ZM10 3L10.9219 2.61258L10.0084 0.438802L9.08066 2.60654L10 3ZM9.281 4.68L9.36775 5.67623L9.96461 5.62426L10.2003 5.07346L9.281 4.68ZM7.455 4.839L7.36825 3.84277L5.01226 4.04792L6.80071 5.59525L7.455 4.839ZM8.842 6.039L9.81382 6.27474L9.95763 5.68189L9.49629 5.28275L8.842 6.039ZM8.409 7.824L7.43718 7.58826L6.87569 9.90297L8.92127 8.68282L8.409 7.824ZM11.909 17V18H12.909V17H11.909ZM8.091 17H7.091V18H8.091V17ZM8.091 8.727V7.727H7.091V8.727H8.091ZM11.909 8.727H12.909V7.727H11.909V8.727ZM3 13.182V12.182H2V13.182H3ZM3 17H2V18H3V17ZM6.818 17V18H7.818V17H6.818ZM6.818 13.182H7.818V12.182H6.818V13.182ZM5.545 15.727V16.727H6.545V15.727H5.545ZM4.273 15.727H3.273V16.727H4.273V15.727ZM4.273 14.455V13.455H3.273V14.455H4.273ZM5.545 14.455H6.545V13.455H5.545V14.455ZM13.181 17H12.181V18H13.181V17ZM17 17V18H18V17H17ZM17 10.636H18V9.636H17V10.636ZM15.727 15.727V16.727H16.7267L16.727 15.7273L15.727 15.727ZM14.455 15.727H13.455V16.727H14.455V15.727ZM14.455 11.909V10.909H13.455V11.909H14.455ZM15.728 11.909L16.728 11.9093L16.7283 10.909H15.728V11.909ZM10 6.875L9.48044 7.72943L11.0394 8.67743L11.559 7.823L12.0786 6.96857L10.5196 6.02057L10 6.875ZM11.559 7.823L12.5332 7.59742L12.1192 5.80942L11.145 6.035L10.1708 6.26058L10.5848 8.04858L11.559 7.823ZM11.145 6.035L11.7958 6.79426L13.1958 5.59426L12.545 4.835L11.8942 4.07574L10.4942 5.27574L11.145 6.035ZM12.545 4.835L12.629 3.83853L10.79 3.68353L10.706 4.68L10.622 5.67647L12.461 5.83147L12.545 4.835ZM10.706 4.68L11.6279 4.29258L10.9219 2.61258L10 3L9.0781 3.38742L9.7841 5.06742L10.706 4.68ZM10 3L9.08066 2.60654L8.36166 4.28654L9.281 4.68L10.2003 5.07346L10.9193 3.39346L10 3ZM9.281 4.68L9.19425 3.68377L7.36825 3.84277L7.455 4.839L7.54175 5.83523L9.36775 5.67623L9.281 4.68ZM7.455 4.839L6.80071 5.59525L8.18771 6.79525L8.842 6.039L9.49629 5.28275L8.10929 4.08275L7.455 4.839ZM8.842 6.039L7.87018 5.80326L7.43718 7.58826L8.409 7.824L9.38082 8.05974L9.81382 6.27474L8.842 6.039ZM8.409 7.824L8.92127 8.68282L10.5123 7.73382L10 6.875L9.48773 6.01618L7.89673 6.96518L8.409 7.824ZM11.909 17V16H8.091V17V18H11.909V17ZM8.091 17H9.091V8.727H8.091H7.091V17H8.091ZM8.091 8.727V9.727H11.909V8.727V7.727H8.091V8.727ZM11.909 8.727H10.909V17H11.909H12.909V8.727H11.909ZM3 13.182H2V17H3H4V13.182H3ZM3 17V18H6.818V17V16H3V17ZM6.818 17H7.818V13.182H6.818H5.818V17H6.818ZM6.818 13.182V12.182H3V13.182V14.182H6.818V13.182ZM5.545 15.727V14.727H4.273V15.727V16.727H5.545V15.727ZM4.273 15.727H5.273V14.455H4.273H3.273V15.727H4.273ZM4.273 14.455V15.455H5.545V14.455V13.455H4.273V14.455ZM5.545 14.455H4.545V15.727H5.545H6.545V14.455H5.545ZM13.181 10.637H12.181V17H13.181H14.181V10.637H13.181ZM13.181 17V18H17V17V16H13.181V17ZM17 17H18V10.636H17H16V17H17ZM17 10.636V9.636H13.182V10.636V11.636H17V10.636ZM15.727 15.727V14.727H14.455V15.727V16.727H15.727V15.727ZM14.455 15.727H15.455V11.909H14.455H13.455V15.727H14.455ZM14.455 11.909V12.909H15.728V11.909V10.909H14.455V11.909ZM15.728 11.909L14.728 11.9087L14.727 15.7267L15.727 15.727L16.727 15.7273L16.728 11.9093L15.728 11.909Z" fill="currentColor" mask="url(#path-1-inside-1_10234_120670)"/>
</svg>
