<svg width="26" height="20" viewBox="0 0 26 20" fill="none" xmlns="http://www.w3.org/2000/svg">
<rect width="26" height="20" rx="4" fill="#1F79D4"/>
<g clip-path="url(#clip0_10218_141041)">
<path d="M13.2568 15.8027C12.2138 16.4348 11.0263 16.7918 9.80762 16.8398C9.41248 16.8463 9.01819 16.7864 8.64355 16.6631L8.48438 16.6064C8.18603 16.4615 7.90684 16.2777 7.65527 16.0615C7.9403 15.6724 8.22547 15.2826 8.48438 14.9199L9.20703 13.9121C9.44354 13.5782 9.67754 13.2477 9.91113 12.9238C10.2588 13.0123 10.6231 13.0211 10.9746 12.9492C11.2704 12.8864 11.5577 12.7909 11.835 12.6719H12.3896C12.636 13.5748 12.9246 14.6126 13.2568 15.8027ZM9.21191 10.7705C9.10131 11.0455 9.05343 11.3419 9.07129 11.6377C9.08928 11.9335 9.17244 12.2228 9.31543 12.4824C9.02884 12.8474 8.77057 13.2095 8.48438 13.5713V13.5693C8.04416 14.1668 7.62886 14.7635 7.16211 15.3594C6.91197 14.7712 6.82292 14.1262 6.9043 13.4922C6.98395 12.767 7.17628 12.0583 7.47461 11.3926C7.81048 11.2893 8.1481 11.1596 8.48438 11.0303C8.71857 10.9523 8.95283 10.8741 9.21191 10.7705ZM20 7.45117C19.7429 8.78657 19.1836 10.046 18.3662 11.1328C17.4355 12.4792 16.2971 13.6706 14.9941 14.6611C14.4752 13.4151 14.0619 12.3537 13.6973 11.4443C14.5871 10.6872 15.2809 9.72594 15.7207 8.64355C16.9915 8.28171 18.4193 7.86567 20 7.45117ZM14.4424 4.28613V6.00977H12.2178V7.16211H14.3643V8.58105H12.2178V11.8545H10.5078V4.28613H14.4424ZM9.68652 9.71094C9.66648 9.7445 9.64558 9.77768 9.62598 9.81152C9.23741 9.96704 8.84845 10.1224 8.48438 10.2783C8.29904 10.3586 8.10865 10.4288 7.91504 10.4863C8.09712 10.174 8.279 9.86344 8.48438 9.55273C8.71876 9.18848 8.97839 8.85197 9.2373 8.51465C9.38258 8.33509 9.53291 8.15961 9.68652 7.9873V9.71094ZM16.8174 3.88379C17.4947 3.83588 18.1718 3.98999 18.7617 4.32617C19.081 4.52893 19.3539 4.79873 19.5596 5.11621C19.7651 5.43373 19.8998 5.79271 19.9541 6.16699C18.4508 6.63389 17.1022 7.07559 15.9092 7.49023C15.9258 7.20223 15.8372 6.917 15.6611 6.68848C15.5533 6.54877 15.4163 6.43545 15.2617 6.35547V5.8457C15.7806 5.18139 16.298 4.53216 16.8174 3.88379ZM15.2617 4.79297V4.18652C15.4729 4.11803 15.6869 4.05639 15.9023 4.00195C15.689 4.26264 15.4756 4.52708 15.2617 4.79297Z" fill="white"/>
</g>
<defs>
<clipPath id="clip0_10218_141041">
<rect width="14" height="14" fill="white" transform="translate(6 3)"/>
</clipPath>
</defs>
</svg>
