<svg width="44" height="20" viewBox="0 0 44 20" fill="none" xmlns="http://www.w3.org/2000/svg">
<rect x="0.5" y="0.5" width="43" height="19" rx="3.5" stroke="#1F79D4"/>
<path d="M12.398 15H10.916L6.457 8.253V15H4.975V5.952H6.457L10.916 12.686V5.952H12.398V15ZM15.6961 13.804H18.7511V15H14.2141V5.965H15.6961V13.804ZM21.3295 5.965V11.724C21.3295 12.4087 21.5072 12.9243 21.8625 13.271C22.2265 13.6177 22.7292 13.791 23.3705 13.791C24.0205 13.791 24.5232 13.6177 24.8785 13.271C25.2425 12.9243 25.4245 12.4087 25.4245 11.724V5.965H26.9065V11.698C26.9065 12.4347 26.7462 13.0587 26.4255 13.57C26.1048 14.0813 25.6758 14.4627 25.1385 14.714C24.6012 14.9653 24.0075 15.091 23.3575 15.091C22.7075 15.091 22.1138 14.9653 21.5765 14.714C21.0478 14.4627 20.6275 14.0813 20.3155 13.57C20.0035 13.0587 19.8475 12.4347 19.8475 11.698V5.965H21.3295Z" fill="#1F79D4"/>
<path d="M37.25 10.25L33 6L32 7L35.25 10.25L32.001 13.5L33.001 14.5L37.25 10.25Z" fill="#085FB5"/>
</svg>
