<svg width="85" height="90" viewBox="0 0 85 90" fill="none" xmlns="http://www.w3.org/2000/svg">
<path d="M29.7028 83.9237C29.9448 84.0527 30.1538 84.1147 30.3848 84.2127L16.4668 77.1387V77.2497L29.7028 83.9237Z" fill="white"/>
<path d="M34.9815 84.3305C36.2355 83.4515 36.8665 81.6335 36.8665 78.8595C36.8665 76.1485 36.2355 73.7465 34.9815 71.6485C33.7255 69.5525 31.9655 67.9415 29.7025 66.7985L28.6715 66.2715L13.6865 75.5955L30.3845 84.2125C32.3135 85.0435 33.8595 85.1055 34.9815 84.3305Z" fill="white"/>
<path d="M14.5645 29.2707L29.7595 36.9367C33.6095 38.8777 36.6935 41.5597 39.0235 44.9897C41.3515 48.4197 42.5135 52.4077 42.5135 56.9697C42.5135 59.7357 41.9745 61.8367 40.9025 63.2687C39.8305 64.6907 38.3205 65.4527 36.3815 65.5557V65.7097C39.0165 67.7567 41.0025 70.3577 42.3635 73.5277C43.7175 76.6877 44.3925 80.1547 44.3925 83.8927C44.3925 86.2087 44.0035 88.1157 43.2815 89.6697L84.6875 68.6227V45.5117V22.3927L54.4375 7.01367L14.5645 29.2707Z" fill="white"/>
<path d="M27.7752 43.7227L14.8262 52.2557L28.6702 59.3667C30.4472 60.2647 31.9412 60.3627 33.1392 59.6557C34.3282 58.9427 34.9212 57.3767 34.9212 54.9157C34.9212 52.1447 34.3992 49.9367 33.3442 48.2767C32.2922 46.6107 31.4842 45.7207 27.7752 43.7227Z" fill="white"/>
<path d="M48.705 4.019L40.857 0L0 22.184V69.467L7.457 72.902L24.142 63.713L16.314 59.762L9.683 63.432V49.613L23.073 41.314L16.099 37.791L9.683 41.768V25.178L48.705 4.019Z" fill="white"/>
</svg>
