<svg width="434" height="90" viewBox="0 0 434 90" fill="none" xmlns="http://www.w3.org/2000/svg">
<path d="M133.691 47.3448C132.492 45.1278 130.722 43.6968 128.384 43.0518V42.9208C130.113 41.9618 131.448 40.5968 132.4 38.8368C133.35 37.0708 133.827 34.9608 133.827 32.4868C133.827 28.4208 132.795 25.3738 130.727 23.3638C128.664 21.3428 125.927 20.3418 122.517 20.3418H104.612V69.3278H121.492C126.41 69.3278 129.975 68.0148 132.182 65.3928C134.394 62.7508 135.497 59.5258 135.497 55.6798C135.498 52.3418 134.896 49.5628 133.691 47.3448ZM125.064 60.3128C123.952 61.6598 122.393 62.3338 120.38 62.3338H113.318V27.3408H120.506C122.336 27.3408 123.722 27.8428 124.658 28.8448C125.586 29.8578 126.054 31.5988 126.054 34.0678C126.054 36.2558 125.526 37.9428 124.465 39.1108C123.407 40.2748 122.083 40.8588 120.507 40.8588H119.013V47.0298H120.381C122.394 47.0298 123.953 47.6848 125.065 48.9918C126.18 50.3028 126.737 52.1618 126.737 54.5838C126.736 57.0578 126.179 58.9598 125.064 60.3128Z" fill="white"/>
<path d="M170.792 43.0518V42.9208C172.521 41.9618 173.856 40.5968 174.811 38.8368C175.762 37.0708 176.238 34.9608 176.238 32.4868C176.238 28.4208 175.204 25.3738 173.141 23.3638C171.072 21.3428 168.339 20.3418 164.925 20.3418H145.98V69.3278H155.27V27.3408H162.916C164.746 27.3408 166.13 27.8428 167.065 28.8448C167.995 29.8578 168.463 31.5988 168.463 34.0678C168.463 36.2558 167.932 37.9428 166.874 39.1108C165.816 40.2748 164.492 40.8588 162.916 40.8588H161.035V47.0298C161.035 47.0298 161.16 47.0298 162.004 47.0298C162.848 47.0298 166.904 48.6638 166.904 52.3298C166.904 56.0098 166.904 69.2748 166.904 69.2748H176.563C176.563 69.2748 176.563 54.4758 176.563 52.1808C176.563 48.4308 174.178 43.8328 170.792 43.0518Z" fill="white"/>
<path d="M198.373 20.1992H189.072V69.4662H198.373V20.1992Z" fill="white"/>
<path d="M227.087 20.2598C224.441 20.2598 210.155 20.2598 210.155 20.2598V69.4118C210.155 69.4118 221.855 69.4118 228.289 69.4118C234.72 69.4118 238.798 60.3378 238.798 55.6338C238.798 50.9228 238.798 39.7798 238.798 32.8928C238.798 25.1958 232.598 20.2598 227.087 20.2598ZM230.897 52.5868C230.897 55.9668 229.956 62.4668 225.528 62.4668C222.882 62.4668 219.101 62.4668 219.101 62.4668V27.1988C219.101 27.1988 223.947 27.1988 225.035 27.1988C228.805 27.1988 230.897 30.7398 230.897 36.2668C230.897 41.2108 230.897 49.2128 230.897 52.5868Z" fill="white"/>
<path d="M264.749 27.3834H269.214C271.62 27.3834 273.611 29.9954 274.024 33.4354H281.99V30.5274C281.99 24.7724 277.376 20.1094 271.67 20.1094H262.287C256.592 20.1094 251.971 24.7724 251.971 30.5274V59.1514C251.971 64.9004 256.592 69.5614 262.287 69.5614H271.67C277.376 69.5614 281.99 64.9004 281.99 59.1514V40.7744H267.092V48.8954H274.115V55.2274C274.115 59.2994 271.925 62.2874 269.215 62.2874H264.75C262.034 62.2874 259.842 59.3004 259.842 55.2274V34.7534C259.841 30.6814 262.033 27.3834 264.749 27.3834Z" fill="white"/>
<path d="M415.958 27.3834H420.425C422.833 27.3834 424.823 29.9954 425.236 33.4354H433.201V30.5274C433.201 24.7724 428.58 20.1094 422.887 20.1094H413.496C407.801 20.1094 403.182 24.7724 403.182 30.5274V59.1514C403.182 64.9004 407.801 69.5614 413.496 69.5614H422.887C428.58 69.5614 433.201 64.9004 433.201 59.1514V48.8234H425.301L425.324 48.8954V55.2274C425.324 59.2994 423.131 62.2874 420.426 62.2874H415.959C413.246 62.2874 411.053 59.3004 411.053 55.2274V34.7534C411.052 30.6814 413.245 27.3834 415.958 27.3834Z" fill="white"/>
<path d="M302.361 40.3881V27.2111H318.33V20.2891H293.508V69.3831H319.893V62.3121H302.361V48.6521H316.25V40.3881H302.361Z" fill="white"/>
<path d="M376.225 40.3881V27.2111H392.191V20.2891H367.369V69.3831H393.752V62.3121H376.225V48.6521H390.109V40.3881H376.225Z" fill="white"/>
<path d="M357.415 20.3066H327.644V27.2166H337.876V69.3646H347.177V27.2166H357.415V20.3066Z" fill="white"/>
<path d="M133.691 47.3448C132.492 45.1278 130.722 43.6968 128.384 43.0518V42.9208C130.113 41.9618 131.448 40.5968 132.4 38.8368C133.35 37.0708 133.827 34.9608 133.827 32.4868C133.827 28.4208 132.795 25.3738 130.727 23.3638C128.664 21.3428 125.927 20.3418 122.517 20.3418H104.612V69.3278H121.492C126.41 69.3278 129.975 68.0148 132.182 65.3928C134.394 62.7508 135.497 59.5258 135.497 55.6798C135.498 52.3418 134.896 49.5628 133.691 47.3448ZM125.064 60.3128C123.952 61.6598 122.393 62.3338 120.38 62.3338H113.318V27.3408H120.506C122.336 27.3408 123.722 27.8428 124.658 28.8448C125.586 29.8578 126.054 31.5988 126.054 34.0678C126.054 36.2558 125.526 37.9428 124.465 39.1108C123.407 40.2748 122.083 40.8588 120.507 40.8588H119.013V47.0298H120.381C122.394 47.0298 123.953 47.6848 125.065 48.9918C126.18 50.3028 126.737 52.1618 126.737 54.5838C126.736 57.0578 126.179 58.9598 125.064 60.3128Z" fill="white"/>
<path d="M170.792 43.0518V42.9208C172.521 41.9618 173.856 40.5968 174.811 38.8368C175.762 37.0708 176.238 34.9608 176.238 32.4868C176.238 28.4208 175.204 25.3738 173.141 23.3638C171.072 21.3428 168.339 20.3418 164.925 20.3418H145.98V69.3278H155.27V27.3408H162.916C164.746 27.3408 166.13 27.8428 167.065 28.8448C167.995 29.8578 168.463 31.5988 168.463 34.0678C168.463 36.2558 167.932 37.9428 166.874 39.1108C165.816 40.2748 164.492 40.8588 162.916 40.8588H161.035V47.0298C161.035 47.0298 161.16 47.0298 162.004 47.0298C162.848 47.0298 166.904 48.6638 166.904 52.3298C166.904 56.0098 166.904 69.2748 166.904 69.2748H176.563C176.563 69.2748 176.563 54.4758 176.563 52.1808C176.563 48.4308 174.178 43.8328 170.792 43.0518Z" fill="white"/>
<path d="M198.373 20.1992H189.072V69.4662H198.373V20.1992Z" fill="white"/>
<path d="M227.087 20.2598C224.441 20.2598 210.155 20.2598 210.155 20.2598V69.4118C210.155 69.4118 221.855 69.4118 228.289 69.4118C234.72 69.4118 238.798 60.3378 238.798 55.6338C238.798 50.9228 238.798 39.7798 238.798 32.8928C238.798 25.1958 232.598 20.2598 227.087 20.2598ZM230.897 52.5868C230.897 55.9668 229.956 62.4668 225.528 62.4668C222.882 62.4668 219.101 62.4668 219.101 62.4668V27.1988C219.101 27.1988 223.947 27.1988 225.035 27.1988C228.805 27.1988 230.897 30.7398 230.897 36.2668C230.897 41.2108 230.897 49.2128 230.897 52.5868Z" fill="white"/>
<path d="M264.749 27.3834H269.214C271.62 27.3834 273.611 29.9954 274.024 33.4354H281.99V30.5274C281.99 24.7724 277.376 20.1094 271.67 20.1094H262.287C256.592 20.1094 251.971 24.7724 251.971 30.5274V59.1514C251.971 64.9004 256.592 69.5614 262.287 69.5614H271.67C277.376 69.5614 281.99 64.9004 281.99 59.1514V40.7744H267.092V48.8954H274.115V55.2274C274.115 59.2994 271.925 62.2874 269.215 62.2874H264.75C262.034 62.2874 259.842 59.3004 259.842 55.2274V34.7534C259.841 30.6814 262.033 27.3834 264.749 27.3834Z" fill="white"/>
<path d="M415.958 27.3834H420.425C422.833 27.3834 424.823 29.9954 425.236 33.4354H433.201V30.5274C433.201 24.7724 428.58 20.1094 422.887 20.1094H413.496C407.801 20.1094 403.182 24.7724 403.182 30.5274V59.1514C403.182 64.9004 407.801 69.5614 413.496 69.5614H422.887C428.58 69.5614 433.201 64.9004 433.201 59.1514V48.8234H425.301L425.324 48.8954V55.2274C425.324 59.2994 423.131 62.2874 420.426 62.2874H415.959C413.246 62.2874 411.053 59.3004 411.053 55.2274V34.7534C411.052 30.6814 413.245 27.3834 415.958 27.3834Z" fill="white"/>
<path d="M302.361 40.3881V27.2111H318.33V20.2891H293.508V69.3831H319.893V62.3121H302.361V48.6521H316.25V40.3881H302.361Z" fill="white"/>
<path d="M376.225 40.3881V27.2111H392.191V20.2891H367.369V69.3831H393.752V62.3121H376.225V48.6521H390.109V40.3881H376.225Z" fill="white"/>
<path d="M357.415 20.3066H327.644V27.2166H337.876V69.3646H347.177V27.2166H357.415V20.3066Z" fill="white"/>
<path d="M29.7028 83.9237C29.9448 84.0527 30.1538 84.1147 30.3848 84.2127L16.4668 77.1387V77.2497L29.7028 83.9237Z" fill="white"/>
<path d="M34.9815 84.3305C36.2355 83.4515 36.8665 81.6335 36.8665 78.8595C36.8665 76.1485 36.2355 73.7465 34.9815 71.6485C33.7255 69.5525 31.9655 67.9415 29.7025 66.7985L28.6715 66.2715L13.6865 75.5955L30.3845 84.2125C32.3135 85.0435 33.8595 85.1055 34.9815 84.3305Z" fill="white"/>
<path d="M14.5645 29.2707L29.7595 36.9367C33.6095 38.8777 36.6935 41.5597 39.0235 44.9897C41.3515 48.4197 42.5135 52.4077 42.5135 56.9697C42.5135 59.7357 41.9745 61.8367 40.9025 63.2687C39.8305 64.6907 38.3205 65.4527 36.3815 65.5557V65.7097C39.0165 67.7567 41.0025 70.3577 42.3635 73.5277C43.7175 76.6877 44.3925 80.1547 44.3925 83.8927C44.3925 86.2087 44.0035 88.1157 43.2815 89.6697L84.6875 68.6227V45.5117V22.3927L54.4375 7.01367L14.5645 29.2707Z" fill="white"/>
<path d="M27.7752 43.7227L14.8262 52.2557L28.6702 59.3667C30.4472 60.2647 31.9412 60.3627 33.1392 59.6557C34.3282 58.9427 34.9212 57.3767 34.9212 54.9157C34.9212 52.1447 34.3992 49.9367 33.3442 48.2767C32.2922 46.6107 31.4842 45.7207 27.7752 43.7227Z" fill="white"/>
<path d="M48.705 4.019L40.857 0L0 22.184V69.467L7.457 72.902L24.142 63.713L16.314 59.762L9.683 63.432V49.613L23.073 41.314L16.099 37.791L9.683 41.768V25.178L48.705 4.019Z" fill="white"/>
</svg>
