<svg width="304" height="90" viewBox="0 0 304 90" fill="none" xmlns="http://www.w3.org/2000/svg">
<path d="M29.7028 83.9237C29.9448 84.0527 30.1538 84.1147 30.3848 84.2127L16.4668 77.1387V77.2497L29.7028 83.9237Z" fill="white"/>
<path d="M34.9815 84.3305C36.2355 83.4515 36.8665 81.6335 36.8665 78.8595C36.8665 76.1485 36.2355 73.7465 34.9815 71.6485C33.7255 69.5525 31.9655 67.9415 29.7025 66.7985L28.6715 66.2715L13.6865 75.5955L30.3845 84.2125C32.3135 85.0435 33.8595 85.1055 34.9815 84.3305Z" fill="white"/>
<path d="M14.5645 29.2707L29.7595 36.9367C33.6095 38.8777 36.6935 41.5597 39.0235 44.9897C41.3515 48.4197 42.5135 52.4077 42.5135 56.9697C42.5135 59.7357 41.9745 61.8367 40.9025 63.2687C39.8305 64.6907 38.3205 65.4527 36.3815 65.5557V65.7097C39.0165 67.7567 41.0025 70.3577 42.3635 73.5277C43.7175 76.6877 44.3925 80.1547 44.3925 83.8927C44.3925 86.2087 44.0035 88.1157 43.2815 89.6697L84.6875 68.6227V45.5117V22.3927L54.4375 7.01367L14.5645 29.2707Z" fill="white"/>
<path d="M27.7752 43.7227L14.8262 52.2557L28.6702 59.3667C30.4472 60.2647 31.9412 60.3627 33.1392 59.6557C34.3282 58.9427 34.9212 57.3767 34.9212 54.9157C34.9212 52.1447 34.3992 49.9367 33.3442 48.2767C32.2922 46.6107 31.4842 45.7207 27.7752 43.7227Z" fill="white"/>
<path d="M48.705 4.019L40.857 0L0 22.184V69.467L7.457 72.902L24.142 63.713L16.314 59.762L9.683 63.432V49.613L23.073 41.314L16.099 37.791L9.683 41.768V25.178L48.705 4.019Z" fill="white"/>
<path d="M147.335 18.3984H139.103C139.103 18.3984 139.103 24.7434 139.103 25.6264C138.029 25.6264 116.998 25.6264 115.923 25.6264C115.923 24.7434 115.923 18.3984 115.923 18.3984H107.112V42.1514C107.112 44.2964 107.712 45.8954 108.889 46.9054C110.133 47.9484 112.074 48.4754 114.659 48.4754H147.912V18.3984H147.335ZM139.103 32.4754C139.103 33.3514 139.103 40.8164 139.103 41.6914C138.029 41.6914 116.998 41.6914 115.923 41.6914C115.923 40.8164 115.923 33.3514 115.923 32.4754C116.998 32.4754 138.029 32.4754 139.103 32.4754ZM149.813 60.8274H104.613V67.8674H150.39V60.8274H149.813Z" fill="white"/>
<path d="M199.168 17.9512H190.935C190.935 17.9512 190.935 57.6932 190.935 58.6912C189.858 58.6912 167.749 58.6912 166.672 58.6912C166.672 57.7692 166.672 45.5332 166.672 44.6112C167.754 44.6112 184.653 44.6112 184.653 44.6112V19.0762H157.862V25.8592C157.862 25.8592 174.832 25.8592 175.915 25.8592C175.915 26.7652 175.915 36.9222 175.915 37.8282C174.832 37.8282 157.862 37.8282 157.862 37.8282V59.0002C157.862 61.0682 158.526 62.7032 159.836 63.8572C161.11 64.9742 162.997 65.5412 165.445 65.5412C165.445 65.5412 189.83 65.5412 190.935 65.5412C190.935 66.4002 190.935 71.6722 190.935 71.6722H199.746V17.9512H199.168Z" fill="white"/>
<path d="M250.619 18.0156H242.386V71.7186H251.195V18.0156H250.619ZM236.66 19.1296H209.21V25.9136C209.21 25.9136 217.823 25.9136 218.843 25.9136C218.843 26.8526 218.843 37.5036 218.843 37.5036C218.843 43.6726 217.53 49.0836 214.94 53.5896C212.796 57.3606 209.97 60.2596 206.539 62.2066L206.025 62.4986L210.583 68.1176L211.052 67.8176C214.105 65.8616 216.656 63.7476 218.637 61.5326C220.728 59.2196 222.268 56.6906 223.296 54.0146C224.352 56.7286 225.781 59.2806 227.753 61.5286C229.735 63.8216 232.312 65.9396 235.405 67.8236L235.842 68.0906L241.042 62.4996L240.454 62.1956C236.755 60.2846 233.76 57.4056 231.556 53.6396C228.968 49.1736 227.655 43.7256 227.655 37.4486C227.655 37.4486 227.655 26.8526 227.655 25.9136C228.673 25.9136 237.239 25.9136 237.239 25.9136V19.1296H236.66Z" fill="white"/>
<path d="M302.85 18.0156H294.762V48.1286H303.428V18.0156H302.85ZM282.992 48.1336H291.656V18.0186H291.078H282.992C282.992 18.0186 282.992 29.4526 282.992 30.3926C282.095 30.3926 278.147 30.3926 278.147 30.3926V37.3046C278.147 37.3046 282.094 37.3046 282.992 37.3046C282.992 38.0386 282.992 40.6026 282.992 41.3366C281.965 41.3366 270.01 41.3366 268.981 41.3366C268.981 40.5616 268.981 37.1846 268.981 36.4086C269.97 36.4086 276.71 36.4086 276.71 36.4086V29.5616C276.71 29.5616 269.97 29.5616 268.981 29.5616C268.981 28.8406 268.981 26.5046 268.981 25.7856C270.009 25.7856 279.081 25.7856 279.081 25.7856V18.9366H260.173V41.3626C260.173 43.7266 260.822 45.4736 262.104 46.5556C263.341 47.5946 265.313 48.1206 267.961 48.1206C267.961 48.1206 281.919 48.1206 282.992 48.1206M302.85 51.4496H262.364V58.3616C262.364 58.3616 293.503 58.3616 294.618 58.3616C294.618 59.3076 294.618 71.6676 294.618 71.6676H303.429V51.4496H302.85Z" fill="white"/>
</svg>
