<svg width="256" height="14" viewBox="0 0 256 14" fill="none" xmlns="http://www.w3.org/2000/svg">
<path d="M-0.00061607 6.425C-0.00061607 5.68833 0.146717 5.047 0.441384 4.501C0.736051 3.94633 1.14338 3.51733 1.66338 3.214C2.19205 2.91067 2.79438 2.759 3.47038 2.759C4.34572 2.759 5.06505 2.97133 5.62838 3.396C6.20038 3.82067 6.57738 4.41 6.75938 5.164H5.48538C5.36405 4.73067 5.12572 4.38833 4.77038 4.137C4.42372 3.88567 3.99038 3.76 3.47038 3.76C2.79438 3.76 2.24838 3.994 1.83238 4.462C1.41638 4.92133 1.20838 5.57567 1.20838 6.425C1.20838 7.283 1.41638 7.946 1.83238 8.414C2.24838 8.882 2.79438 9.116 3.47038 9.116C3.99038 9.116 4.42372 8.99467 4.77038 8.752C5.11705 8.50933 5.35538 8.16267 5.48538 7.712H6.75938C6.56872 8.44 6.18738 9.025 5.61538 9.467C5.04338 9.90033 4.32838 10.117 3.47038 10.117C2.79438 10.117 2.19205 9.96533 1.66338 9.662C1.14338 9.35867 0.736051 8.92967 0.441384 8.375C0.146717 7.82033 -0.00061607 7.17033 -0.00061607 6.425ZM11.3149 10.117C10.6475 10.117 10.0409 9.96533 9.49487 9.662C8.95754 9.35867 8.53287 8.92967 8.22087 8.375C7.91754 7.81167 7.76587 7.16167 7.76587 6.425C7.76587 5.697 7.92187 5.05567 8.23387 4.501C8.55454 3.93767 8.98787 3.50867 9.53387 3.214C10.0799 2.91067 10.6909 2.759 11.3669 2.759C12.0429 2.759 12.6539 2.91067 13.1999 3.214C13.7459 3.50867 14.1749 3.93333 14.4869 4.488C14.8075 5.04267 14.9679 5.68833 14.9679 6.425C14.9679 7.16167 14.8032 7.81167 14.4739 8.375C14.1532 8.92967 13.7155 9.35867 13.1609 9.662C12.6062 9.96533 11.9909 10.117 11.3149 10.117ZM11.3149 9.077C11.7395 9.077 12.1382 8.97733 12.5109 8.778C12.8835 8.57867 13.1825 8.27967 13.4079 7.881C13.6419 7.48233 13.7589 6.997 13.7589 6.425C13.7589 5.853 13.6462 5.36767 13.4209 4.969C13.1955 4.57033 12.9009 4.27567 12.5369 4.085C12.1729 3.88567 11.7785 3.786 11.3539 3.786C10.9205 3.786 10.5219 3.88567 10.1579 4.085C9.80254 4.27567 9.51654 4.57033 9.29987 4.969C9.0832 5.36767 8.97487 5.853 8.97487 6.425C8.97487 7.00567 9.07887 7.49533 9.28687 7.894C9.50354 8.29267 9.78954 8.59167 10.1449 8.791C10.5002 8.98167 10.8902 9.077 11.3149 9.077ZM17.5763 4.189C17.8103 3.78167 18.157 3.44367 18.6163 3.175C19.0843 2.89767 19.626 2.759 20.2413 2.759C20.874 2.759 21.446 2.91067 21.9573 3.214C22.4773 3.51733 22.8846 3.94633 23.1793 4.501C23.474 5.047 23.6213 5.684 23.6213 6.412C23.6213 7.13133 23.474 7.77267 23.1793 8.336C22.8846 8.89933 22.4773 9.337 21.9573 9.649C21.446 9.961 20.874 10.117 20.2413 10.117C19.6346 10.117 19.0973 9.98267 18.6293 9.714C18.17 9.43667 17.819 9.09433 17.5763 8.687V13.38H16.3933V2.876H17.5763V4.189ZM22.4123 6.412C22.4123 5.87467 22.304 5.40667 22.0873 5.008C21.8706 4.60933 21.576 4.306 21.2033 4.098C20.8393 3.89 20.4363 3.786 19.9943 3.786C19.561 3.786 19.158 3.89433 18.7853 4.111C18.4213 4.319 18.1266 4.62667 17.9013 5.034C17.6846 5.43267 17.5763 5.89633 17.5763 6.425C17.5763 6.96233 17.6846 7.43467 17.9013 7.842C18.1266 8.24067 18.4213 8.54833 18.7853 8.765C19.158 8.973 19.561 9.077 19.9943 9.077C20.4363 9.077 20.8393 8.973 21.2033 8.765C21.576 8.54833 21.8706 8.24067 22.0873 7.842C22.304 7.43467 22.4123 6.958 22.4123 6.412ZM31.1845 2.876L26.8945 13.354H25.6725L27.0765 9.922L24.2035 2.876H25.5165L27.7525 8.648L29.9625 2.876H31.1845ZM33.4266 4.033C33.6346 3.62567 33.9293 3.30933 34.3106 3.084C34.7006 2.85867 35.173 2.746 35.7276 2.746V3.968H35.4156C34.0896 3.968 33.4266 4.68733 33.4266 6.126V10H32.2436V2.876H33.4266V4.033ZM37.5742 1.719C37.3489 1.719 37.1582 1.641 37.0022 1.485C36.8462 1.329 36.7682 1.13833 36.7682 0.912999C36.7682 0.687666 36.8462 0.497 37.0022 0.341C37.1582 0.185 37.3489 0.107 37.5742 0.107C37.7909 0.107 37.9729 0.185 38.1202 0.341C38.2762 0.497 38.3542 0.687666 38.3542 0.912999C38.3542 1.13833 38.2762 1.329 38.1202 1.485C37.9729 1.641 37.7909 1.719 37.5742 1.719ZM38.1462 2.876V10H36.9632V2.876H38.1462ZM42.9705 2.759C43.5858 2.759 44.1231 2.89333 44.5825 3.162C45.0505 3.43067 45.3971 3.76867 45.6225 4.176V2.876H46.8185V10.156C46.8185 10.806 46.6798 11.3823 46.4025 11.885C46.1251 12.3963 45.7265 12.795 45.2065 13.081C44.6951 13.367 44.0971 13.51 43.4125 13.51C42.4765 13.51 41.6965 13.289 41.0725 12.847C40.4485 12.405 40.0801 11.8027 39.9675 11.04H41.1375C41.2675 11.4733 41.5361 11.82 41.9435 12.08C42.3508 12.3487 42.8405 12.483 43.4125 12.483C44.0625 12.483 44.5911 12.2793 44.9985 11.872C45.4145 11.4647 45.6225 10.8927 45.6225 10.156V8.661C45.3885 9.077 45.0418 9.42367 44.5825 9.701C44.1231 9.97833 43.5858 10.117 42.9705 10.117C42.3378 10.117 41.7615 9.961 41.2415 9.649C40.7301 9.337 40.3271 8.89933 40.0325 8.336C39.7378 7.77267 39.5905 7.13133 39.5905 6.412C39.5905 5.684 39.7378 5.047 40.0325 4.501C40.3271 3.94633 40.7301 3.51733 41.2415 3.214C41.7615 2.91067 42.3378 2.759 42.9705 2.759ZM45.6225 6.425C45.6225 5.88767 45.5141 5.41967 45.2975 5.021C45.0808 4.62233 44.7861 4.319 44.4135 4.111C44.0495 3.89433 43.6465 3.786 43.2045 3.786C42.7625 3.786 42.3595 3.89 41.9955 4.098C41.6315 4.306 41.3411 4.60933 41.1245 5.008C40.9078 5.40667 40.7995 5.87467 40.7995 6.412C40.7995 6.958 40.9078 7.43467 41.1245 7.842C41.3411 8.24067 41.6315 8.54833 41.9955 8.765C42.3595 8.973 42.7625 9.077 43.2045 9.077C43.6465 9.077 44.0495 8.973 44.4135 8.765C44.7861 8.54833 45.0808 8.24067 45.2975 7.842C45.5141 7.43467 45.6225 6.96233 45.6225 6.425ZM52.2236 2.746C52.761 2.746 53.2463 2.863 53.6796 3.097C54.113 3.32233 54.451 3.66467 54.6936 4.124C54.945 4.58333 55.0706 5.14233 55.0706 5.801V10H53.9006V5.97C53.9006 5.25933 53.723 4.71767 53.3676 4.345C53.0123 3.96367 52.527 3.773 51.9116 3.773C51.2876 3.773 50.7893 3.968 50.4166 4.358C50.0526 4.748 49.8706 5.31567 49.8706 6.061V10H48.6876V0.38H49.8706V3.89C50.1046 3.526 50.4253 3.24433 50.8326 3.045C51.2486 2.84567 51.7123 2.746 52.2236 2.746ZM58.3161 3.851V8.05C58.3161 8.39667 58.3897 8.64367 58.5371 8.791C58.6844 8.92967 58.9401 8.999 59.3041 8.999H60.1751V10H59.1091C58.4504 10 57.9564 9.84833 57.6271 9.545C57.2977 9.24167 57.1331 8.74333 57.1331 8.05V3.851H56.2101V2.876H57.1331V1.082H58.3161V2.876H60.1751V3.851H58.3161ZM70.6642 7.53C70.0402 7.53 69.5549 7.33933 69.2082 6.958C68.8616 6.57667 68.6882 6.048 68.6882 5.372C68.6882 4.67867 68.8659 4.14567 69.2212 3.773C69.5852 3.39167 70.0836 3.201 70.7162 3.201C70.9242 3.201 71.1236 3.22267 71.3142 3.266C71.5136 3.30067 71.7086 3.36133 71.8992 3.448L71.6782 4.098C71.5136 4.02867 71.3489 3.97667 71.1842 3.942C71.0282 3.90733 70.8679 3.89 70.7032 3.89C70.3219 3.89 70.0316 4.01567 69.8322 4.267C69.6416 4.50967 69.5462 4.878 69.5462 5.372C69.5462 5.84 69.6416 6.204 69.8322 6.464C70.0229 6.71533 70.3002 6.841 70.6642 6.841C70.8376 6.841 71.0196 6.81933 71.2102 6.776C71.4096 6.724 71.6176 6.65467 71.8342 6.568V7.27C71.6262 7.35667 71.4269 7.42167 71.2362 7.465C71.0456 7.50833 70.8549 7.53 70.6642 7.53ZM70.3132 10.715C69.5766 10.715 68.8832 10.5763 68.2332 10.299C67.5832 10.0217 67.0112 9.64033 66.5172 9.155C66.0319 8.661 65.6506 8.089 65.3732 7.439C65.0959 6.789 64.9572 6.09567 64.9572 5.359C64.9572 4.61367 65.0959 3.92033 65.3732 3.279C65.6506 2.629 66.0319 2.06133 66.5172 1.576C67.0112 1.082 67.5832 0.696333 68.2332 0.418999C68.8832 0.141666 69.5766 0.00299931 70.3132 0.00299931C71.0586 0.00299931 71.7519 0.141666 72.3932 0.418999C73.0432 0.696333 73.6109 1.082 74.0962 1.576C74.5902 2.06133 74.9759 2.629 75.2532 3.279C75.5306 3.92033 75.6692 4.61367 75.6692 5.359C75.6692 6.09567 75.5306 6.789 75.2532 7.439C74.9759 8.089 74.5902 8.661 74.0962 9.155C73.6109 9.64033 73.0432 10.0217 72.3932 10.299C71.7519 10.5763 71.0586 10.715 70.3132 10.715ZM70.3132 9.987C70.9546 9.987 71.5526 9.87 72.1072 9.636C72.6706 9.39333 73.1646 9.05967 73.5892 8.635C74.0139 8.21033 74.3432 7.72067 74.5772 7.166C74.8199 6.60267 74.9412 6.00033 74.9412 5.359C74.9412 4.71767 74.8199 4.11967 74.5772 3.565C74.3432 3.00167 74.0139 2.50767 73.5892 2.083C73.1646 1.65833 72.6706 1.329 72.1072 1.095C71.5526 0.852333 70.9546 0.730999 70.3132 0.730999C69.6719 0.730999 69.0696 0.852333 68.5062 1.095C67.9516 1.329 67.4619 1.65833 67.0372 2.083C66.6126 2.50767 66.2789 3.00167 66.0362 3.565C65.8022 4.11967 65.6852 4.71767 65.6852 5.359C65.6852 6.00033 65.8022 6.60267 66.0362 7.166C66.2789 7.72067 66.6126 8.21033 67.0372 8.635C67.4619 9.05967 67.9516 9.39333 68.5062 9.636C69.0696 9.87 69.6719 9.987 70.3132 9.987ZM85.5571 5.333C85.8864 5.385 86.1854 5.51933 86.4541 5.736C86.7314 5.95267 86.9481 6.22133 87.1041 6.542C87.2687 6.86267 87.3511 7.205 87.3511 7.569C87.3511 8.02833 87.2341 8.44433 87.0001 8.817C86.7661 9.181 86.4237 9.47133 85.9731 9.688C85.5311 9.896 85.0067 10 84.4001 10H81.0201V0.939H84.2701C84.8854 0.939 85.4097 1.043 85.8431 1.251C86.2764 1.45033 86.6014 1.72333 86.8181 2.07C87.0347 2.41667 87.1431 2.80667 87.1431 3.24C87.1431 3.77733 86.9957 4.22367 86.7011 4.579C86.4151 4.92567 86.0337 5.177 85.5571 5.333ZM82.2031 4.852H84.1921C84.7467 4.852 85.1757 4.722 85.4791 4.462C85.7824 4.202 85.9341 3.84233 85.9341 3.383C85.9341 2.92367 85.7824 2.564 85.4791 2.304C85.1757 2.044 84.7381 1.914 84.1661 1.914H82.2031V4.852ZM84.2961 9.025C84.8854 9.025 85.3447 8.88633 85.6741 8.609C86.0034 8.33167 86.1681 7.946 86.1681 7.452C86.1681 6.94933 85.9947 6.555 85.6481 6.269C85.3014 5.97433 84.8377 5.827 84.2571 5.827H82.2031V9.025H84.2961ZM90.0457 4.033C90.2537 3.62567 90.5484 3.30933 90.9297 3.084C91.3197 2.85867 91.792 2.746 92.3467 2.746V3.968H92.0347C90.7087 3.968 90.0457 4.68733 90.0457 6.126V10H88.8627V2.876H90.0457V4.033ZM94.1933 1.719C93.968 1.719 93.7773 1.641 93.6213 1.485C93.4653 1.329 93.3873 1.13833 93.3873 0.912999C93.3873 0.687666 93.4653 0.497 93.6213 0.341C93.7773 0.185 93.968 0.107 94.1933 0.107C94.41 0.107 94.592 0.185 94.7393 0.341C94.8953 0.497 94.9733 0.687666 94.9733 0.912999C94.9733 1.13833 94.8953 1.329 94.7393 1.485C94.592 1.641 94.41 1.719 94.1933 1.719ZM94.7653 2.876V10H93.5823V2.876H94.7653ZM96.2095 6.412C96.2095 5.684 96.3569 5.047 96.6515 4.501C96.9462 3.94633 97.3492 3.51733 97.8605 3.214C98.3805 2.91067 98.9612 2.759 99.6025 2.759C100.157 2.759 100.673 2.889 101.15 3.149C101.626 3.40033 101.99 3.734 102.242 4.15V0.38H103.438V10H102.242V8.661C102.008 9.08567 101.661 9.43667 101.202 9.714C100.742 9.98267 100.205 10.117 99.5895 10.117C98.9569 10.117 98.3805 9.961 97.8605 9.649C97.3492 9.337 96.9462 8.89933 96.6515 8.336C96.3569 7.77267 96.2095 7.13133 96.2095 6.412ZM102.242 6.425C102.242 5.88767 102.133 5.41967 101.917 5.021C101.7 4.62233 101.405 4.319 101.033 4.111C100.669 3.89433 100.266 3.786 99.8235 3.786C99.3815 3.786 98.9785 3.89 98.6145 4.098C98.2505 4.306 97.9602 4.60933 97.7435 5.008C97.5269 5.40667 97.4185 5.87467 97.4185 6.412C97.4185 6.958 97.5269 7.43467 97.7435 7.842C97.9602 8.24067 98.2505 8.54833 98.6145 8.765C98.9785 8.973 99.3815 9.077 99.8235 9.077C100.266 9.077 100.669 8.973 101.033 8.765C101.405 8.54833 101.7 8.24067 101.917 7.842C102.133 7.43467 102.242 6.96233 102.242 6.425ZM108.245 2.759C108.86 2.759 109.397 2.89333 109.857 3.162C110.325 3.43067 110.671 3.76867 110.897 4.176V2.876H112.093V10.156C112.093 10.806 111.954 11.3823 111.677 11.885C111.399 12.3963 111.001 12.795 110.481 13.081C109.969 13.367 109.371 13.51 108.687 13.51C107.751 13.51 106.971 13.289 106.347 12.847C105.723 12.405 105.354 11.8027 105.242 11.04H106.412C106.542 11.4733 106.81 11.82 107.218 12.08C107.625 12.3487 108.115 12.483 108.687 12.483C109.337 12.483 109.865 12.2793 110.273 11.872C110.689 11.4647 110.897 10.8927 110.897 10.156V8.661C110.663 9.077 110.316 9.42367 109.857 9.701C109.397 9.97833 108.86 10.117 108.245 10.117C107.612 10.117 107.036 9.961 106.516 9.649C106.004 9.337 105.601 8.89933 105.307 8.336C105.012 7.77267 104.865 7.13133 104.865 6.412C104.865 5.684 105.012 5.047 105.307 4.501C105.601 3.94633 106.004 3.51733 106.516 3.214C107.036 2.91067 107.612 2.759 108.245 2.759ZM110.897 6.425C110.897 5.88767 110.788 5.41967 110.572 5.021C110.355 4.62233 110.06 4.319 109.688 4.111C109.324 3.89433 108.921 3.786 108.479 3.786C108.037 3.786 107.634 3.89 107.27 4.098C106.906 4.306 106.615 4.60933 106.399 5.008C106.182 5.40667 106.074 5.87467 106.074 6.412C106.074 6.958 106.182 7.43467 106.399 7.842C106.615 8.24067 106.906 8.54833 107.27 8.765C107.634 8.973 108.037 9.077 108.479 9.077C108.921 9.077 109.324 8.973 109.688 8.765C110.06 8.54833 110.355 8.24067 110.572 7.842C110.788 7.43467 110.897 6.96233 110.897 6.425ZM120.462 6.165C120.462 6.39033 120.449 6.62867 120.423 6.88H114.729C114.772 7.582 115.011 8.13233 115.444 8.531C115.886 8.921 116.419 9.116 117.043 9.116C117.554 9.116 117.979 8.999 118.317 8.765C118.664 8.52233 118.906 8.20167 119.045 7.803H120.319C120.128 8.48767 119.747 9.04667 119.175 9.48C118.603 9.90467 117.892 10.117 117.043 10.117C116.367 10.117 115.76 9.96533 115.223 9.662C114.694 9.35867 114.278 8.92967 113.975 8.375C113.672 7.81167 113.52 7.16167 113.52 6.425C113.52 5.68833 113.667 5.04267 113.962 4.488C114.257 3.93333 114.668 3.50867 115.197 3.214C115.734 2.91067 116.35 2.759 117.043 2.759C117.719 2.759 118.317 2.90633 118.837 3.201C119.357 3.49567 119.756 3.903 120.033 4.423C120.319 4.93433 120.462 5.515 120.462 6.165ZM119.24 5.918C119.24 5.46733 119.14 5.08167 118.941 4.761C118.742 4.43167 118.469 4.18467 118.122 4.02C117.784 3.84667 117.407 3.76 116.991 3.76C116.393 3.76 115.882 3.95067 115.457 4.332C115.041 4.71333 114.803 5.242 114.742 5.918H119.24ZM123.336 3.851V8.05C123.336 8.39667 123.41 8.64367 123.557 8.791C123.705 8.92967 123.96 8.999 124.324 8.999H125.195V10H124.129C123.471 10 122.977 9.84833 122.647 9.545C122.318 9.24167 122.153 8.74333 122.153 8.05V3.851H121.23V2.876H122.153V1.082H123.336V2.876H125.195V3.851H123.336ZM132.999 6.165C132.999 6.39033 132.986 6.62867 132.96 6.88H127.266C127.309 7.582 127.547 8.13233 127.981 8.531C128.423 8.921 128.956 9.116 129.58 9.116C130.091 9.116 130.516 8.999 130.854 8.765C131.2 8.52233 131.443 8.20167 131.582 7.803H132.856C132.665 8.48767 132.284 9.04667 131.712 9.48C131.14 9.90467 130.429 10.117 129.58 10.117C128.904 10.117 128.297 9.96533 127.76 9.662C127.231 9.35867 126.815 8.92967 126.512 8.375C126.208 7.81167 126.057 7.16167 126.057 6.425C126.057 5.68833 126.204 5.04267 126.499 4.488C126.793 3.93333 127.205 3.50867 127.734 3.214C128.271 2.91067 128.886 2.759 129.58 2.759C130.256 2.759 130.854 2.90633 131.374 3.201C131.894 3.49567 132.292 3.903 132.57 4.423C132.856 4.93433 132.999 5.515 132.999 6.165ZM131.777 5.918C131.777 5.46733 131.677 5.08167 131.478 4.761C131.278 4.43167 131.005 4.18467 130.659 4.02C130.321 3.84667 129.944 3.76 129.528 3.76C128.93 3.76 128.418 3.95067 127.994 4.332C127.578 4.71333 127.339 5.242 127.279 5.918H131.777ZM133.988 6.425C133.988 5.68833 134.136 5.047 134.43 4.501C134.725 3.94633 135.132 3.51733 135.652 3.214C136.181 2.91067 136.783 2.759 137.459 2.759C138.335 2.759 139.054 2.97133 139.617 3.396C140.189 3.82067 140.566 4.41 140.748 5.164H139.474C139.353 4.73067 139.115 4.38833 138.759 4.137C138.413 3.88567 137.979 3.76 137.459 3.76C136.783 3.76 136.237 3.994 135.821 4.462C135.405 4.92133 135.197 5.57567 135.197 6.425C135.197 7.283 135.405 7.946 135.821 8.414C136.237 8.882 136.783 9.116 137.459 9.116C137.979 9.116 138.413 8.99467 138.759 8.752C139.106 8.50933 139.344 8.16267 139.474 7.712H140.748C140.558 8.44 140.176 9.025 139.604 9.467C139.032 9.90033 138.317 10.117 137.459 10.117C136.783 10.117 136.181 9.96533 135.652 9.662C135.132 9.35867 134.725 8.92967 134.43 8.375C134.136 7.82033 133.988 7.17033 133.988 6.425ZM142.574 10.078C142.348 10.078 142.158 10 142.002 9.844C141.846 9.688 141.768 9.49733 141.768 9.272C141.768 9.04667 141.846 8.856 142.002 8.7C142.158 8.544 142.348 8.466 142.574 8.466C142.79 8.466 142.972 8.544 143.12 8.7C143.276 8.856 143.354 9.04667 143.354 9.272C143.354 9.49733 143.276 9.688 143.12 9.844C142.972 10 142.79 10.078 142.574 10.078ZM153.488 7.985H149.536L148.808 10H147.56L150.836 0.991H152.201L155.464 10H154.216L153.488 7.985ZM153.15 7.023L151.512 2.447L149.874 7.023H153.15ZM157.945 0.38V10H156.762V0.38H157.945ZM161.014 0.38V10H159.831V0.38H161.014ZM167.419 4.033C167.627 3.62567 167.922 3.30933 168.303 3.084C168.693 2.85867 169.165 2.746 169.72 2.746V3.968H169.408C168.082 3.968 167.419 4.68733 167.419 6.126V10H166.236V2.876H167.419V4.033ZM171.567 1.719C171.341 1.719 171.151 1.641 170.995 1.485C170.839 1.329 170.761 1.13833 170.761 0.912999C170.761 0.687666 170.839 0.497 170.995 0.341C171.151 0.185 171.341 0.107 171.567 0.107C171.783 0.107 171.965 0.185 172.113 0.341C172.269 0.497 172.347 0.687666 172.347 0.912999C172.347 1.13833 172.269 1.329 172.113 1.485C171.965 1.641 171.783 1.719 171.567 1.719ZM172.139 2.876V10H170.956V2.876H172.139ZM176.963 2.759C177.578 2.759 178.116 2.89333 178.575 3.162C179.043 3.43067 179.39 3.76867 179.615 4.176V2.876H180.811V10.156C180.811 10.806 180.672 11.3823 180.395 11.885C180.118 12.3963 179.719 12.795 179.199 13.081C178.688 13.367 178.09 13.51 177.405 13.51C176.469 13.51 175.689 13.289 175.065 12.847C174.441 12.405 174.073 11.8027 173.96 11.04H175.13C175.26 11.4733 175.529 11.82 175.936 12.08C176.343 12.3487 176.833 12.483 177.405 12.483C178.055 12.483 178.584 12.2793 178.991 11.872C179.407 11.4647 179.615 10.8927 179.615 10.156V8.661C179.381 9.077 179.034 9.42367 178.575 9.701C178.116 9.97833 177.578 10.117 176.963 10.117C176.33 10.117 175.754 9.961 175.234 9.649C174.723 9.337 174.32 8.89933 174.025 8.336C173.73 7.77267 173.583 7.13133 173.583 6.412C173.583 5.684 173.73 5.047 174.025 4.501C174.32 3.94633 174.723 3.51733 175.234 3.214C175.754 2.91067 176.33 2.759 176.963 2.759ZM179.615 6.425C179.615 5.88767 179.507 5.41967 179.29 5.021C179.073 4.62233 178.779 4.319 178.406 4.111C178.042 3.89433 177.639 3.786 177.197 3.786C176.755 3.786 176.352 3.89 175.988 4.098C175.624 4.306 175.334 4.60933 175.117 5.008C174.9 5.40667 174.792 5.87467 174.792 6.412C174.792 6.958 174.9 7.43467 175.117 7.842C175.334 8.24067 175.624 8.54833 175.988 8.765C176.352 8.973 176.755 9.077 177.197 9.077C177.639 9.077 178.042 8.973 178.406 8.765C178.779 8.54833 179.073 8.24067 179.29 7.842C179.507 7.43467 179.615 6.96233 179.615 6.425ZM186.216 2.746C186.753 2.746 187.239 2.863 187.672 3.097C188.105 3.32233 188.443 3.66467 188.686 4.124C188.937 4.58333 189.063 5.14233 189.063 5.801V10H187.893V5.97C187.893 5.25933 187.715 4.71767 187.36 4.345C187.005 3.96367 186.519 3.773 185.904 3.773C185.28 3.773 184.782 3.968 184.409 4.358C184.045 4.748 183.863 5.31567 183.863 6.061V10H182.68V0.38H183.863V3.89C184.097 3.526 184.418 3.24433 184.825 3.045C185.241 2.84567 185.705 2.746 186.216 2.746ZM192.309 3.851V8.05C192.309 8.39667 192.382 8.64367 192.53 8.791C192.677 8.92967 192.933 8.999 193.297 8.999H194.168V10H193.102C192.443 10 191.949 9.84833 191.62 9.545C191.29 9.24167 191.126 8.74333 191.126 8.05V3.851H190.203V2.876H191.126V1.082H192.309V2.876H194.168V3.851H192.309ZM199.99 4.033C200.198 3.62567 200.492 3.30933 200.874 3.084C201.264 2.85867 201.736 2.746 202.291 2.746V3.968H201.979C200.653 3.968 199.99 4.68733 199.99 6.126V10H198.807V2.876H199.99V4.033ZM210.026 6.165C210.026 6.39033 210.013 6.62867 209.987 6.88H204.293C204.337 7.582 204.575 8.13233 205.008 8.531C205.45 8.921 205.983 9.116 206.607 9.116C207.119 9.116 207.543 8.999 207.881 8.765C208.228 8.52233 208.471 8.20167 208.609 7.803H209.883C209.693 8.48767 209.311 9.04667 208.739 9.48C208.167 9.90467 207.457 10.117 206.607 10.117C205.931 10.117 205.325 9.96533 204.787 9.662C204.259 9.35867 203.843 8.92967 203.539 8.375C203.236 7.81167 203.084 7.16167 203.084 6.425C203.084 5.68833 203.232 5.04267 203.526 4.488C203.821 3.93333 204.233 3.50867 204.761 3.214C205.299 2.91067 205.914 2.759 206.607 2.759C207.283 2.759 207.881 2.90633 208.401 3.201C208.921 3.49567 209.32 3.903 209.597 4.423C209.883 4.93433 210.026 5.515 210.026 6.165ZM208.804 5.918C208.804 5.46733 208.705 5.08167 208.505 4.761C208.306 4.43167 208.033 4.18467 207.686 4.02C207.348 3.84667 206.971 3.76 206.555 3.76C205.957 3.76 205.446 3.95067 205.021 4.332C204.605 4.71333 204.367 5.242 204.306 5.918H208.804ZM213.98 10.117C213.434 10.117 212.944 10.026 212.511 9.844C212.077 9.65333 211.735 9.39333 211.484 9.064C211.232 8.726 211.094 8.34033 211.068 7.907H212.29C212.324 8.26233 212.489 8.55267 212.784 8.778C213.087 9.00333 213.481 9.116 213.967 9.116C214.417 9.116 214.773 9.01633 215.033 8.817C215.293 8.61767 215.423 8.36633 215.423 8.063C215.423 7.751 215.284 7.52133 215.007 7.374C214.729 7.218 214.3 7.06633 213.72 6.919C213.191 6.78033 212.758 6.64167 212.42 6.503C212.09 6.35567 211.804 6.14333 211.562 5.866C211.328 5.58 211.211 5.20733 211.211 4.748C211.211 4.384 211.319 4.05033 211.536 3.747C211.752 3.44367 212.06 3.20533 212.459 3.032C212.857 2.85 213.312 2.759 213.824 2.759C214.612 2.759 215.249 2.95833 215.735 3.357C216.22 3.75567 216.48 4.30167 216.515 4.995H215.332C215.306 4.62233 215.154 4.32333 214.877 4.098C214.608 3.87267 214.244 3.76 213.785 3.76C213.36 3.76 213.022 3.851 212.771 4.033C212.519 4.215 212.394 4.45333 212.394 4.748C212.394 4.982 212.467 5.177 212.615 5.333C212.771 5.48033 212.961 5.60167 213.187 5.697C213.421 5.78367 213.741 5.88333 214.149 5.996C214.66 6.13467 215.076 6.27333 215.397 6.412C215.717 6.542 215.99 6.74133 216.216 7.01C216.45 7.27867 216.571 7.62967 216.58 8.063C216.58 8.453 216.471 8.804 216.255 9.116C216.038 9.428 215.73 9.675 215.332 9.857C214.942 10.0303 214.491 10.117 213.98 10.117ZM224.62 6.165C224.62 6.39033 224.607 6.62867 224.581 6.88H218.887C218.93 7.582 219.168 8.13233 219.602 8.531C220.044 8.921 220.577 9.116 221.201 9.116C221.712 9.116 222.137 8.999 222.475 8.765C222.821 8.52233 223.064 8.20167 223.203 7.803H224.477C224.286 8.48767 223.905 9.04667 223.333 9.48C222.761 9.90467 222.05 10.117 221.201 10.117C220.525 10.117 219.918 9.96533 219.381 9.662C218.852 9.35867 218.436 8.92967 218.133 8.375C217.829 7.81167 217.678 7.16167 217.678 6.425C217.678 5.68833 217.825 5.04267 218.12 4.488C218.414 3.93333 218.826 3.50867 219.355 3.214C219.892 2.91067 220.507 2.759 221.201 2.759C221.877 2.759 222.475 2.90633 222.995 3.201C223.515 3.49567 223.913 3.903 224.191 4.423C224.477 4.93433 224.62 5.515 224.62 6.165ZM223.398 5.918C223.398 5.46733 223.298 5.08167 223.099 4.761C222.899 4.43167 222.626 4.18467 222.28 4.02C221.942 3.84667 221.565 3.76 221.149 3.76C220.551 3.76 220.039 3.95067 219.615 4.332C219.199 4.71333 218.96 5.242 218.9 5.918H223.398ZM227.234 4.033C227.442 3.62567 227.737 3.30933 228.118 3.084C228.508 2.85867 228.981 2.746 229.535 2.746V3.968H229.223C227.897 3.968 227.234 4.68733 227.234 6.126V10H226.051V2.876H227.234V4.033ZM233.423 8.908L235.633 2.876H236.894L234.099 10H232.721L229.926 2.876H231.2L233.423 8.908ZM244.428 6.165C244.428 6.39033 244.415 6.62867 244.389 6.88H238.695C238.738 7.582 238.977 8.13233 239.41 8.531C239.852 8.921 240.385 9.116 241.009 9.116C241.52 9.116 241.945 8.999 242.283 8.765C242.63 8.52233 242.872 8.20167 243.011 7.803H244.285C244.094 8.48767 243.713 9.04667 243.141 9.48C242.569 9.90467 241.858 10.117 241.009 10.117C240.333 10.117 239.726 9.96533 239.189 9.662C238.66 9.35867 238.244 8.92967 237.941 8.375C237.638 7.81167 237.486 7.16167 237.486 6.425C237.486 5.68833 237.633 5.04267 237.928 4.488C238.223 3.93333 238.634 3.50867 239.163 3.214C239.7 2.91067 240.316 2.759 241.009 2.759C241.685 2.759 242.283 2.90633 242.803 3.201C243.323 3.49567 243.722 3.903 243.999 4.423C244.285 4.93433 244.428 5.515 244.428 6.165ZM243.206 5.918C243.206 5.46733 243.106 5.08167 242.907 4.761C242.708 4.43167 242.435 4.18467 242.088 4.02C241.75 3.84667 241.373 3.76 240.957 3.76C240.359 3.76 239.848 3.95067 239.423 4.332C239.007 4.71333 238.769 5.242 238.708 5.918H243.206ZM245.418 6.412C245.418 5.684 245.565 5.047 245.86 4.501C246.154 3.94633 246.557 3.51733 247.069 3.214C247.589 2.91067 248.169 2.759 248.811 2.759C249.365 2.759 249.881 2.889 250.358 3.149C250.834 3.40033 251.198 3.734 251.45 4.15V0.38H252.646V10H251.45V8.661C251.216 9.08567 250.869 9.43667 250.41 9.714C249.95 9.98267 249.413 10.117 248.798 10.117C248.165 10.117 247.589 9.961 247.069 9.649C246.557 9.337 246.154 8.89933 245.86 8.336C245.565 7.77267 245.418 7.13133 245.418 6.412ZM251.45 6.425C251.45 5.88767 251.341 5.41967 251.125 5.021C250.908 4.62233 250.613 4.319 250.241 4.111C249.877 3.89433 249.474 3.786 249.032 3.786C248.59 3.786 248.187 3.89 247.823 4.098C247.459 4.306 247.168 4.60933 246.952 5.008C246.735 5.40667 246.627 5.87467 246.627 6.412C246.627 6.958 246.735 7.43467 246.952 7.842C247.168 8.24067 247.459 8.54833 247.823 8.765C248.187 8.973 248.59 9.077 249.032 9.077C249.474 9.077 249.877 8.973 250.241 8.765C250.613 8.54833 250.908 8.24067 251.125 7.842C251.341 7.43467 251.45 6.96233 251.45 6.425ZM254.892 10.078C254.666 10.078 254.476 10 254.32 9.844C254.164 9.688 254.086 9.49733 254.086 9.272C254.086 9.04667 254.164 8.856 254.32 8.7C254.476 8.544 254.666 8.466 254.892 8.466C255.108 8.466 255.29 8.544 255.438 8.7C255.594 8.856 255.672 9.04667 255.672 9.272C255.672 9.49733 255.594 9.688 255.438 9.844C255.29 10 255.108 10.078 254.892 10.078Z" fill="#878A99"/>
</svg>
