<svg width="32" height="32" viewBox="0 0 32 32" fill="none" xmlns="http://www.w3.org/2000/svg">
    <g clip-path="url(#clip0_10010_124991)">
    <path d="M16 32C24.8366 32 32 24.8366 32 16C32 7.16344 24.8366 0 16 0C7.16344 0 0 7.16344 0 16C0 24.8366 7.16344 32 16 32Z" fill="#F4F4F4" />
    <path
        d="M16 24.3333C16.8425 24.3333 17.6559 24.2083 18.4225 23.9758L19.2745 25.4516C18.2486 25.8069 17.1468 26 16 26C10.4772 26 6 21.5228 6 16C6 15.389 6.05479 14.7908 6.15974 14.2101C6.15966 14.2101 6.15982 14.2101 6.15974 14.2101C7.0034 9.5413 11.0879 6 15.9998 6C15.9997 6 15.9998 6 15.9998 6C21.5226 6 26 10.4772 26 16C26 19.1819 24.5139 22.0168 22.1978 23.8482L21.3538 22.3863C23.1753 20.8576 24.3333 18.564 24.3333 16C24.3333 15.3285 24.2539 14.6755 24.1039 14.0499C23.3777 14.235 22.6169 14.3333 21.8331 14.3333C18.9798 14.3333 16.431 13.0296 14.7498 10.9855C13.1015 12.9896 10.6192 14.282 7.83367 14.3318C7.72416 14.8708 7.66667 15.4287 7.66667 16C7.66667 20.6024 11.3976 24.3333 16 24.3333Z"
        fill="#888B9A"
    />
    <path
        d="M13.0833 18.5C13.7737 18.5 14.3333 17.9404 14.3333 17.25C14.3333 16.5596 13.7737 16 13.0833 16C12.393 16 11.8333 16.5596 11.8333 17.25C11.8333 17.9404 12.393 18.5 13.0833 18.5Z"
        fill="#888B9A"
    />
    <path
        d="M18.9167 18.5C19.607 18.5 20.1667 17.9404 20.1667 17.25C20.1667 16.5596 19.607 16 18.9167 16C18.2263 16 17.6667 16.5596 17.6667 17.25C17.6667 17.9404 18.2263 18.5 18.9167 18.5Z"
        fill="#888B9A"
    />
    </g>
    <defs>
    <clipPath id="clip0_10010_124991">
        <rect width="32" height="32" fill="white" />
    </clipPath>
    </defs>
</svg>