<svg width="26" height="26" viewBox="20 20 32 32" fill="none" xmlns="http://www.w3.org/2000/svg">
<rect x="20" y="20" width="32" height="32" rx="4" fill="#1F79D4"/>
<path fill-rule="evenodd" clip-rule="evenodd" d="M29.0008 24.7969C29.3721 24.7969 29.7282 24.9444 29.9907 25.2069C30.2533 25.4695 30.4008 25.8256 30.4008 26.1969V27.5969H31.8008C32.1721 27.5969 32.5282 27.7444 32.7907 28.0069C33.0533 28.2695 33.2008 28.6256 33.2008 28.9969C33.2008 29.3682 33.0533 29.7243 32.7907 29.9868C32.5282 30.2494 32.1721 30.3969 31.8008 30.3969H30.4008V31.7969C30.4008 32.1682 30.2533 32.5243 29.9907 32.7868C29.7282 33.0494 29.3721 33.1969 29.0008 33.1969C28.6295 33.1969 28.2734 33.0494 28.0108 32.7868C27.7483 32.5243 27.6008 32.1682 27.6008 31.7969V30.3969H26.2008C25.8295 30.3969 25.4734 30.2494 25.2108 29.9868C24.9483 29.7243 24.8008 29.3682 24.8008 28.9969C24.8008 28.6256 24.9483 28.2695 25.2108 28.0069C25.4734 27.7444 25.8295 27.5969 26.2008 27.5969H27.6008V26.1969C27.6008 25.8256 27.7483 25.4695 28.0108 25.2069C28.2734 24.9444 28.6295 24.7969 29.0008 24.7969ZM29.0008 38.7969C29.3721 38.7969 29.7282 38.9444 29.9907 39.2069C30.2533 39.4695 30.4008 39.8256 30.4008 40.1969V41.5969H31.8008C32.1721 41.5969 32.5282 41.7444 32.7907 42.0069C33.0533 42.2695 33.2008 42.6256 33.2008 42.9969C33.2008 43.3682 33.0533 43.7243 32.7907 43.9868C32.5282 44.2494 32.1721 44.3969 31.8008 44.3969H30.4008V45.7969C30.4008 46.1682 30.2533 46.5243 29.9907 46.7868C29.7282 47.0494 29.3721 47.1969 29.0008 47.1969C28.6295 47.1969 28.2734 47.0494 28.0108 46.7868C27.7483 46.5243 27.6008 46.1682 27.6008 45.7969V44.3969H26.2008C25.8295 44.3969 25.4734 44.2494 25.2108 43.9868C24.9483 43.7243 24.8008 43.3682 24.8008 42.9969C24.8008 42.6256 24.9483 42.2695 25.2108 42.0069C25.4734 41.7444 25.8295 41.5969 26.2008 41.5969H27.6008V40.1969C27.6008 39.8256 27.7483 39.4695 28.0108 39.2069C28.2734 38.9444 28.6295 38.7969 29.0008 38.7969ZM38.8008 24.7969C39.1097 24.7968 39.4101 24.8989 39.6549 25.0873C39.8998 25.2757 40.0755 25.5398 40.1546 25.8385L41.8052 32.0769L46.5008 34.7845C46.7136 34.9074 46.8903 35.0841 47.0132 35.2969C47.136 35.5097 47.2007 35.7511 47.2007 35.9969C47.2007 36.2426 47.136 36.484 47.0132 36.6968C46.8903 36.9097 46.7136 37.0864 46.5008 37.2093L41.8052 39.9183L40.1532 46.1553C40.0739 46.4537 39.8983 46.7175 39.6536 46.9057C39.4089 47.0939 39.1088 47.1959 38.8001 47.1959C38.4914 47.1959 38.1913 47.0939 37.9466 46.9057C37.7019 46.7175 37.5262 46.4537 37.447 46.1553L35.7964 39.9169L31.1008 37.2093C30.888 37.0864 30.7113 36.9097 30.5884 36.6968C30.4655 36.484 30.4008 36.2426 30.4008 35.9969C30.4008 35.7511 30.4655 35.5097 30.5884 35.2969C30.7113 35.0841 30.888 34.9074 31.1008 34.7845L35.7964 32.0755L37.4484 25.8385C37.5274 25.54 37.7029 25.2761 37.9475 25.0877C38.1921 24.8993 38.4921 24.7971 38.8008 24.7969Z" fill="white"/>
</svg>
