<svg width="24" height="24" viewBox="0 0 24 24" fill="none" xmlns="http://www.w3.org/2000/svg">
<path d="M6 20C5.44775 20 5 19.5523 5 19L5 5C5 4.44774 5.44775 4.00004 6 4C6.55229 4 7 4.44771 7 5L7 19C7 19.5523 6.55229 20 6 20ZM15.707 16.707C15.3165 17.0975 14.6835 17.0975 14.293 16.707C13.9025 16.3165 13.9025 15.6835 14.293 15.293L16.5859 13L10 13C9.44775 13 9 12.5523 9 12C9 11.4477 9.44775 11 10 11L16.5859 11L14.293 8.70703C13.9025 8.31652 13.9025 7.68348 14.293 7.29297C14.6835 6.90246 15.3165 6.90248 15.707 7.29297L19.707 11.293C20.0976 11.6835 20.0976 12.3165 19.707 12.707L15.707 16.707Z" fill="#888B9A"/>
</svg>
