<svg width="24" height="24" viewBox="0 0 24 24" fill="none" xmlns="http://www.w3.org/2000/svg">
<path d="M18 20C18.5522 20 19 19.5523 19 19L19 5C19 4.44774 18.5522 4.00004 18 4C17.4477 4 17 4.44771 17 5L17 19C17 19.5523 17.4477 20 18 20ZM8.29297 16.707C8.6835 17.0975 9.31652 17.0975 9.70703 16.707C10.0975 16.3165 10.0975 15.6835 9.70703 15.293L7.41406 13L14 13C14.5522 13 15 12.5523 15 12C15 11.4477 14.5522 11 14 11L7.41406 11L9.70703 8.70703C10.0975 8.31652 10.0975 7.68348 9.70703 7.29297C9.31652 6.90246 8.68349 6.90248 8.29297 7.29297L4.29297 11.293C3.90244 11.6835 3.90244 12.3165 4.29297 12.707L8.29297 16.707Z" fill="#888B9A"/>
</svg>
