<svg width="24" height="24" viewBox="0 0 24 24" fill="none" xmlns="http://www.w3.org/2000/svg">
<path d="M9.27051 4.14453C9.07936 4.08085 8.87341 4.07649 8.67969 4.13184L3.72559 5.54688C3.29628 5.66953 3 6.06231 3 6.50879V18.3486C3.00006 19.0128 3.63576 19.4927 4.27441 19.3105L8.72559 18.0381C8.87093 17.9966 9.02323 17.989 9.1709 18.0146L9.31641 18.0518L14.7295 19.8555C14.9206 19.9191 15.1266 19.9235 15.3203 19.8682L20.2744 18.4531C20.7037 18.3305 21 17.9377 21 17.4912V5.65137L20.9932 5.5293C20.9211 4.92988 20.3244 4.51863 19.7256 4.68945L15.2744 5.96191C15.0808 6.01716 14.8747 6.01193 14.6836 5.94824L9.27051 4.14453Z" stroke="#495057" stroke-width="2" stroke-linejoin="round"/>
<line x1="15" y1="19" x2="15" y2="6" stroke="#495057" stroke-width="2"/>
<line x1="9" y1="18" x2="9" y2="5" stroke="#495057" stroke-width="2"/>
</svg>
